<svg xmlns="http://www.w3.org/2000/svg" viewBox="0 13.5 541.5999755859375 36.400001525878906" data-asc="0.984" width="541.5999755859375" height="36.400001525878906"><defs/><g fill="#ffffff"><g transform="translate(0, 0)"><path d="M12.90 49.90Q9.30 49.90 6.38 48.28Q3.45 46.65 1.73 43.53Q0 40.40 0 35.90L0 27.50Q0 20.75 3.80 17.13Q7.60 13.50 14.10 13.50Q20.55 13.50 24.08 16.93Q27.60 20.35 27.60 26.20L27.60 26.40L21.10 26.40L21.10 26Q21.10 24.15 20.33 22.65Q19.55 21.15 18 20.28Q16.45 19.40 14.10 19.40Q10.60 19.40 8.60 21.55Q6.60 23.70 6.60 27.40L6.60 36Q6.60 39.65 8.60 41.88Q10.60 44.10 14.20 44.10Q17.80 44.10 19.45 42.20Q21.10 40.30 21.10 37.40L21.10 36.90L12.80 36.90L12.80 31.30L27.60 31.30L27.60 49.20L21.50 49.20L21.50 45.85L20.60 45.85Q20.25 46.70 19.48 47.65Q18.70 48.60 17.15 49.25Q15.60 49.90 12.90 49.90ZM33.90 49.20L33.90 14.20L40.50 14.20L40.50 43.20L56.50 43.20L56.50 49.20L33.90 49.20ZM61 49.20L61 14.20L67.60 14.20L67.60 49.20L61 49.20ZM74.20 49.20L74.20 14.20L86.45 14.20L92.50 44.70L93.40 44.70L99.45 14.20L111.70 14.20L111.70 49.20L105.30 49.20L105.30 19.05L104.40 19.05L98.40 49.20L87.50 49.20L81.50 19.05L80.60 19.05L80.60 49.20L74.20 49.20ZM118.30 49.20L118.30 14.20L132.70 14.20Q136 14.20 138.53 15.52Q141.05 16.85 142.47 19.25Q143.90 21.65 143.90 24.95L143.90 25.65Q143.90 28.90 142.43 31.33Q140.95 33.75 138.43 35.08Q135.90 36.40 132.70 36.40L124.90 36.40L124.90 49.20L118.30 49.20M124.90 30.40L132.05 30.40Q134.40 30.40 135.85 29.10Q137.30 27.80 137.30 25.55L137.30 25.05Q137.30 22.80 135.85 21.50Q134.40 20.20 132.05 20.20L124.90 20.20L124.90 30.40ZM160.65 49.90Q156.60 49.90 153.50 48.45Q150.40 47 148.65 44.30Q146.90 41.60 146.90 37.80L146.90 36.40L153.40 36.40L153.40 37.80Q153.40 40.95 155.35 42.53Q157.30 44.10 160.65 44.10Q164.05 44.10 165.72 42.75Q167.40 41.40 167.40 39.30Q167.40 37.85 166.57 36.95Q165.75 36.05 164.17 35.48Q162.60 34.90 160.35 34.40L159.20 34.15Q155.60 33.35 153.02 32.13Q150.45 30.90 149.07 28.90Q147.70 26.90 147.70 23.70Q147.70 20.50 149.22 18.23Q150.75 15.95 153.52 14.73Q156.30 13.50 160.05 13.50Q163.80 13.50 166.72 14.77Q169.65 16.05 171.32 18.58Q173 21.10 173 24.90L173 26.40L166.50 26.40L166.50 24.90Q166.50 22.90 165.72 21.68Q164.95 20.45 163.50 19.88Q162.05 19.30 160.05 19.30Q157.05 19.30 155.63 20.43Q154.20 21.55 154.20 23.50Q154.20 24.80 154.88 25.70Q155.55 26.60 156.90 27.20Q158.25 27.80 160.35 28.25L161.50 28.50Q165.25 29.30 168.02 30.55Q170.80 31.80 172.35 33.85Q173.90 35.90 173.90 39.10Q173.90 42.30 172.27 44.73Q170.65 47.15 167.67 48.53Q164.70 49.90 160.65 49.90ZM178.80 49.20L178.80 14.20L201.30 14.20L201.30 20.20L185.40 20.20L185.40 28.55L199.90 28.55L199.90 34.55L185.40 34.55L185.40 43.20L201.60 43.20L201.60 49.20L178.80 49.20ZM232.80 49.90Q226.20 49.90 222.30 46.28Q218.40 42.65 218.40 35.90L218.40 27.50Q218.40 20.75 222.30 17.13Q226.20 13.50 232.80 13.50Q239.40 13.50 243.30 17.13Q247.20 20.75 247.20 27.50L247.20 35.90Q247.20 42.65 243.30 46.28Q239.40 49.90 232.80 49.90M232.80 44Q236.50 44 238.55 41.85Q240.60 39.70 240.60 36.10L240.60 27.30Q240.60 23.70 238.55 21.55Q236.50 19.40 232.80 19.40Q229.15 19.40 227.07 21.55Q225.00 23.70 225.00 27.30L225.00 36.10Q225.00 39.70 227.07 41.85Q229.15 44 232.80 44ZM253 49.20L253 14.20L275 14.20L275 20.20L259.60 20.20L259.60 28.65L273.80 28.65L273.80 34.65L259.60 34.65L259.60 49.20L253 49.20ZM306.00 49.90Q299.40 49.90 295.50 46.28Q291.60 42.65 291.60 35.90L291.60 27.50Q291.60 20.75 295.50 17.13Q299.40 13.50 306.00 13.50Q312.60 13.50 316.50 17.13Q320.40 20.75 320.40 27.50L320.40 35.90Q320.40 42.65 316.50 46.28Q312.60 49.90 306.00 49.90M306.00 44Q309.70 44 311.75 41.85Q313.80 39.70 313.80 36.10L313.80 27.30Q313.80 23.70 311.75 21.55Q309.70 19.40 306.00 19.40Q302.35 19.40 300.27 21.55Q298.20 23.70 298.20 27.30L298.20 36.10Q298.20 39.70 300.27 41.85Q302.35 44 306.00 44ZM339.70 49.90Q335.40 49.90 332.32 48.33Q329.25 46.75 327.63 43.83Q326 40.90 326 36.90L326 14.20L332.60 14.20L332.60 37.10Q332.60 40.30 334.42 42.15Q336.25 44 339.70 44Q343.15 44 344.97 42.15Q346.80 40.30 346.80 37.10L346.80 14.20L353.40 14.20L353.40 36.90Q353.40 40.90 351.77 43.83Q350.15 46.75 347.07 48.33Q344 49.90 339.70 49.90ZM359.80 49.20L359.80 14.20L375 14.20Q378.30 14.20 380.75 15.35Q383.20 16.50 384.55 18.60Q385.90 20.70 385.90 23.55L385.90 24.15Q385.90 27.30 384.40 29.25Q382.90 31.20 380.70 32.10L380.70 33Q382.70 33.10 383.80 34.38Q384.90 35.65 384.90 37.75L384.90 49.20L378.30 49.20L378.30 38.70Q378.30 37.50 377.68 36.75Q377.05 36 375.60 36L366.40 36L366.40 49.20L359.80 49.20M366.40 30L374.30 30Q376.65 30 377.98 28.73Q379.30 27.45 379.30 25.35L379.30 24.85Q379.30 22.75 378 21.48Q376.70 20.20 374.30 20.20L366.40 20.20L366.40 30ZM406.60 49.20L402 14.20L408.55 14.20L411.95 44.60L412.85 44.60L417.25 14.20L428.65 14.20L433.05 44.60L433.95 44.60L437.35 14.20L443.90 14.20L439.30 49.20L427.90 49.20L423.40 18.10L422.50 18.10L418 49.20L406.60 49.20ZM462.00 49.90Q455.40 49.90 451.50 46.28Q447.60 42.65 447.60 35.90L447.60 27.50Q447.60 20.75 451.50 17.13Q455.40 13.50 462.00 13.50Q468.60 13.50 472.50 17.13Q476.40 20.75 476.40 27.50L476.40 35.90Q476.40 42.65 472.50 46.28Q468.60 49.90 462.00 49.90M462.00 44Q465.70 44 467.75 41.85Q469.80 39.70 469.80 36.10L469.80 27.30Q469.80 23.70 467.75 21.55Q465.70 19.40 462.00 19.40Q458.35 19.40 456.27 21.55Q454.20 23.70 454.20 27.30L454.20 36.10Q454.20 39.70 456.27 41.85Q458.35 44 462.00 44ZM482.20 49.20L482.20 14.20L497.40 14.20Q500.70 14.20 503.15 15.35Q505.60 16.50 506.95 18.60Q508.30 20.70 508.30 23.55L508.30 24.15Q508.30 27.30 506.80 29.25Q505.30 31.20 503.10 32.10L503.10 33Q505.10 33.10 506.20 34.38Q507.30 35.65 507.30 37.75L507.30 49.20L500.70 49.20L500.70 38.70Q500.70 37.50 500.07 36.75Q499.45 36 498 36L488.80 36L488.80 49.20L482.20 49.20M488.80 30L496.70 30Q499.05 30 500.38 28.73Q501.70 27.45 501.70 25.35L501.70 24.85Q501.70 22.75 500.40 21.48Q499.10 20.20 496.70 20.20L488.80 20.20L488.80 30ZM513.80 49.20L513.80 14.20L520.40 14.20L520.40 28.10L521.30 28.10L532.65 14.20L541.10 14.20L526.50 31.45L541.60 49.20L532.90 49.20L521.30 35L520.40 35L520.40 49.20L513.80 49.20Z"/></g></g></svg>