<svg xmlns="http://www.w3.org/2000/svg" viewBox="0 14.5 568.6500244140625 36" data-asc="1" width="568.6500244140625" height="36"><defs/><g fill="#ffffff"><g transform="translate(0, 0)"><path d="M18.15 50.50Q14.35 50.50 11.05 49.13Q7.75 47.75 5.28 45.27Q2.80 42.80 1.40 39.55Q0 36.30 0 32.50Q0 28.70 1.40 25.45Q2.80 22.20 5.28 19.72Q7.75 17.25 11.05 15.88Q14.35 14.50 18.15 14.50Q20.60 14.50 22.90 15.05Q25.20 15.60 27.05 16.65Q27.70 17 28.00 17.57Q28.30 18.15 28.30 18.70Q28.30 19.75 27.63 20.52Q26.95 21.30 25.95 21.30Q25.60 21.30 25.23 21.20Q24.85 21.10 24.55 20.95Q23.15 20.25 21.55 19.88Q19.95 19.50 18.15 19.50Q14.55 19.50 11.65 21.22Q8.75 22.95 7.07 25.90Q5.40 28.85 5.40 32.50Q5.40 36.10 7.07 39.08Q8.75 42.05 11.65 43.77Q14.55 45.50 18.15 45.50Q19.90 45.50 21.85 45.08Q23.80 44.65 25.15 43.95L24.75 45.30L24.75 35.80L25.55 36.50L19.00 36.50Q17.90 36.50 17.18 35.80Q16.45 35.10 16.45 34Q16.45 32.90 17.18 32.20Q17.90 31.50 19.00 31.50L27.65 31.50Q28.70 31.50 29.43 32.22Q30.15 32.95 30.15 34.05L30.15 45.15Q30.15 45.95 29.75 46.50Q29.35 47.05 28.85 47.40Q26.60 48.80 23.88 49.65Q21.15 50.50 18.15 50.50ZM56.05 45.10Q57.10 45.10 57.83 45.80Q58.55 46.50 58.55 47.55Q58.55 48.60 57.83 49.30Q57.10 50 56.05 50L39.25 50Q38.15 50 37.43 49.27Q36.70 48.55 36.70 47.45L36.70 17.55Q36.70 16.45 37.45 15.73Q38.20 15 39.40 15Q40.40 15 41.18 15.73Q41.95 16.45 41.95 17.55L41.95 45.95L40.90 45.10L56.05 45.10ZM69.55 47.45Q69.50 48.55 68.73 49.27Q67.95 50 66.90 50Q65.75 50 65.03 49.27Q64.30 48.55 64.30 47.45L64.30 17.55Q64.30 16.45 65.05 15.73Q65.80 15 67 15Q68 15 68.78 15.73Q69.55 16.45 69.55 17.55L69.55 47.45ZM80.25 14.95Q80.85 14.95 81.50 15.25Q82.15 15.55 82.50 16.10L95.20 35.45L93.05 35.35L106 16.10Q106.80 14.95 108.05 14.95Q109.05 14.95 109.83 15.67Q110.60 16.40 110.60 17.50L110.60 47.45Q110.60 48.55 109.90 49.27Q109.20 50 108.05 50Q106.85 50 106.13 49.27Q105.40 48.55 105.40 47.45L105.40 22.10L107 22.45L96.00 39.20Q95.65 39.65 95.10 39.98Q94.55 40.30 93.95 40.25Q93.40 40.30 92.83 39.98Q92.25 39.65 91.90 39.20L81.30 22.70L82.50 20.70L82.50 47.45Q82.50 48.55 81.83 49.27Q81.15 50 80.05 50Q79.00 50 78.33 49.27Q77.65 48.55 77.65 47.45L77.65 17.50Q77.65 16.45 78.43 15.70Q79.20 14.95 80.25 14.95ZM132.85 15Q135.50 15 137.75 16.42Q140.00 17.85 141.35 20.30Q142.70 22.75 142.70 25.80Q142.70 28.85 141.35 31.32Q140.00 33.80 137.75 35.27Q135.50 36.75 132.85 36.75L123.20 36.75L123.60 35.95L123.60 47.45Q123.60 48.55 122.93 49.27Q122.25 50 121.15 50Q120.10 50 119.43 49.27Q118.75 48.55 118.75 47.45L118.75 17.55Q118.75 16.45 119.50 15.73Q120.25 15 121.30 15L132.85 15M132.85 31.95Q134.15 31.95 135.23 31.10Q136.30 30.25 136.98 28.85Q137.65 27.45 137.65 25.80Q137.65 24.15 136.98 22.80Q136.30 21.45 135.23 20.63Q134.15 19.80 132.85 19.80L123.10 19.80L123.60 19.05L123.60 32.60L123.15 31.95L132.85 31.95ZM159.55 50.50Q155.95 50.50 153.15 49.50Q150.35 48.50 147.80 46.20Q147.25 45.80 146.98 45.23Q146.70 44.65 146.70 44.05Q146.70 43.10 147.40 42.35Q148.10 41.60 149.15 41.60Q149.95 41.60 150.65 42.15Q152.55 43.90 154.63 44.80Q156.70 45.70 159.50 45.70Q161.50 45.70 163.18 45.05Q164.85 44.40 165.85 43.30Q166.85 42.20 166.85 40.75Q166.85 38.95 165.83 37.77Q164.80 36.60 162.88 35.83Q160.95 35.05 158.25 34.50Q155.75 34.05 153.78 33.25Q151.80 32.45 150.40 31.22Q149.00 30 148.25 28.30Q147.50 26.60 147.50 24.35Q147.50 21.30 149.10 19.10Q150.70 16.90 153.45 15.70Q156.20 14.50 159.65 14.50Q162.80 14.50 165.55 15.48Q168.30 16.45 170.00 18.10Q171.20 19.15 171.20 20.35Q171.20 21.25 170.48 22.02Q169.75 22.80 168.80 22.80Q168.10 22.80 167.60 22.40Q166.80 21.55 165.45 20.88Q164.10 20.20 162.58 19.75Q161.05 19.30 159.65 19.30Q157.40 19.30 155.80 19.92Q154.20 20.55 153.35 21.63Q152.50 22.70 152.50 24.15Q152.50 25.85 153.48 26.95Q154.45 28.05 156.20 28.72Q157.95 29.40 160.20 29.95Q162.95 30.55 165.13 31.30Q167.30 32.05 168.80 33.22Q170.30 34.40 171.10 36.15Q171.90 37.90 171.90 40.50Q171.90 43.50 170.20 45.75Q168.50 48 165.73 49.25Q162.95 50.50 159.55 50.50ZM180.60 15L197.90 15Q198.95 15 199.68 15.70Q200.40 16.40 200.40 17.45Q200.40 18.50 199.68 19.15Q198.95 19.80 197.90 19.80L182.80 19.80L183.30 18.95L183.30 30.15L182.85 29.65L195.65 29.65Q196.70 29.65 197.43 30.35Q198.15 31.05 198.15 32.15Q198.15 33.20 197.43 33.85Q196.70 34.50 195.65 34.50L182.95 34.50L183.30 34.05L183.30 45.60L182.95 45.20L197.90 45.20Q198.95 45.20 199.68 45.92Q200.40 46.65 200.40 47.60Q200.40 48.65 199.68 49.33Q198.95 50 197.90 50L180.60 50Q179.55 50 178.80 49.27Q178.05 48.55 178.05 47.45L178.05 17.55Q178.05 16.45 178.80 15.73Q179.55 15 180.60 15ZM252.40 32.50Q252.40 36.30 251.15 39.58Q249.90 42.85 247.63 45.30Q245.35 47.75 242.25 49.13Q239.15 50.50 235.45 50.50Q231.80 50.50 228.70 49.13Q225.60 47.75 223.33 45.30Q221.05 42.85 219.83 39.58Q218.60 36.30 218.60 32.50Q218.60 28.70 219.83 25.42Q221.05 22.15 223.33 19.70Q225.60 17.25 228.70 15.88Q231.80 14.50 235.45 14.50Q239.15 14.50 242.25 15.88Q245.35 17.25 247.63 19.70Q249.90 22.15 251.15 25.42Q252.40 28.70 252.40 32.50M247.00 32.50Q247.00 28.80 245.53 25.85Q244.05 22.90 241.45 21.20Q238.85 19.50 235.45 19.50Q232.10 19.50 229.50 21.20Q226.90 22.90 225.45 25.82Q224.00 28.75 224.00 32.50Q224.00 36.20 225.45 39.15Q226.90 42.10 229.50 43.80Q232.10 45.50 235.45 45.50Q238.85 45.50 241.45 43.80Q244.05 42.10 245.53 39.15Q247.00 36.20 247.00 32.50ZM261.20 50Q260.00 50 259.28 49.27Q258.55 48.55 258.55 47.45L258.55 17.55Q258.55 16.45 259.30 15.73Q260.05 15 261.10 15L278.00 15Q279.10 15 279.83 15.70Q280.55 16.40 280.55 17.45Q280.55 18.40 279.83 19.10Q279.10 19.80 278.00 19.80L263.40 19.80L263.75 19.30L263.75 30.45L263.45 29.85L275.75 29.85Q276.85 29.85 277.58 30.55Q278.30 31.25 278.30 32.30Q278.30 33.25 277.58 33.95Q276.85 34.65 275.75 34.65L263.35 34.65L263.75 34.25L263.75 47.45Q263.75 48.55 263.00 49.27Q262.25 50 261.20 50ZM332.50 32.50Q332.50 36.30 331.25 39.58Q330 42.85 327.73 45.30Q325.45 47.75 322.35 49.13Q319.25 50.50 315.55 50.50Q311.90 50.50 308.80 49.13Q305.70 47.75 303.43 45.30Q301.15 42.85 299.93 39.58Q298.70 36.30 298.70 32.50Q298.70 28.70 299.93 25.42Q301.15 22.15 303.43 19.70Q305.70 17.25 308.80 15.88Q311.90 14.50 315.55 14.50Q319.25 14.50 322.35 15.88Q325.45 17.25 327.73 19.70Q330 22.15 331.25 25.42Q332.50 28.70 332.50 32.50M327.10 32.50Q327.10 28.80 325.63 25.85Q324.15 22.90 321.55 21.20Q318.95 19.50 315.55 19.50Q312.20 19.50 309.60 21.20Q307 22.90 305.55 25.82Q304.10 28.75 304.10 32.50Q304.10 36.20 305.55 39.15Q307 42.10 309.60 43.80Q312.20 45.50 315.55 45.50Q318.95 45.50 321.55 43.80Q324.15 42.10 325.63 39.15Q327.10 36.20 327.10 32.50ZM363.50 14.95Q364.60 14.95 365.25 15.67Q365.90 16.40 365.90 17.50L365.90 36.45Q365.90 40.45 364.15 43.60Q362.40 46.75 359.35 48.52Q356.30 50.30 352.30 50.30Q348.35 50.30 345.28 48.52Q342.20 46.75 340.43 43.60Q338.65 40.45 338.65 36.45L338.65 17.50Q338.65 16.40 339.40 15.67Q340.15 14.95 341.35 14.95Q342.30 14.95 343.08 15.67Q343.85 16.40 343.85 17.50L343.85 36.45Q343.85 39.10 345.03 41.08Q346.20 43.05 348.15 44.17Q350.10 45.30 352.30 45.30Q354.70 45.30 356.70 44.17Q358.70 43.05 359.93 41.08Q361.15 39.10 361.15 36.45L361.15 17.50Q361.15 16.40 361.78 15.67Q362.40 14.95 363.50 14.95ZM377.05 50Q375.85 50 374.95 49.27Q374.05 48.55 374.05 47.45L374.05 17.55Q374.05 16.45 374.80 15.73Q375.55 15 376.60 15L390.70 15Q393.40 15 395.65 16.32Q397.90 17.65 399.27 19.97Q400.65 22.30 400.65 25.30Q400.65 27.30 399.85 29.13Q399.05 30.95 397.70 32.35Q396.35 33.75 394.65 34.45L394.10 33.50Q395.65 34.05 396.80 35.08Q397.95 36.10 398.63 37.48Q399.30 38.85 399.35 40.60Q399.50 42.15 399.63 43.17Q399.75 44.20 400 44.85Q400.25 45.50 400.90 45.85Q401.80 46.35 402.02 47.35Q402.25 48.35 401.60 49.15Q401.15 49.75 400.48 49.92Q399.80 50.10 399.10 49.98Q398.40 49.85 397.90 49.60Q397.10 49.10 396.27 48.17Q395.45 47.25 394.95 45.60Q394.45 43.95 394.45 41.25Q394.45 40 394.05 39.10Q393.65 38.20 392.95 37.63Q392.25 37.05 391.30 36.77Q390.35 36.50 389.20 36.50L378.60 36.50L379.30 35.50L379.30 47.45Q379.30 48.55 378.70 49.27Q378.10 50 377.05 50M378.65 32.15L390.60 32.15Q391.75 32.10 392.82 31.22Q393.90 30.35 394.57 28.85Q395.25 27.35 395.25 25.45Q395.25 23.05 393.82 21.42Q392.40 19.80 390.45 19.80L378.75 19.80L379.30 18.50L379.30 33.20L378.65 32.15ZM461.75 14.85Q462.75 14.85 463.60 15.57Q464.45 16.30 464.45 17.55Q464.45 17.90 464.30 18.40L454.05 48.40Q453.80 49.15 453.15 49.55Q452.50 49.95 451.80 50Q451.10 50 450.40 49.60Q449.70 49.20 449.35 48.40L441.45 29.90L441.90 30.10L434.10 48.40Q433.70 49.20 433.02 49.60Q432.35 50 431.60 50Q430.95 49.95 430.30 49.55Q429.65 49.15 429.40 48.40L419.15 18.40Q419 17.90 419 17.55Q419 16.30 419.90 15.57Q420.80 14.85 421.75 14.85Q422.55 14.85 423.22 15.27Q423.90 15.70 424.15 16.50L432.80 42.30L431.90 42.30L439.50 23.70Q439.85 22.95 440.47 22.50Q441.10 22.05 441.90 22.10Q442.70 22.05 443.32 22.50Q443.95 22.95 444.25 23.70L451.45 41.75L450.70 42.15L459.30 16.50Q459.55 15.70 460.25 15.27Q460.95 14.85 461.75 14.85ZM501.20 32.50Q501.20 36.30 499.95 39.58Q498.70 42.85 496.43 45.30Q494.15 47.75 491.05 49.13Q487.95 50.50 484.25 50.50Q480.60 50.50 477.50 49.13Q474.40 47.75 472.13 45.30Q469.85 42.85 468.63 39.58Q467.40 36.30 467.40 32.50Q467.40 28.70 468.63 25.42Q469.85 22.15 472.13 19.70Q474.40 17.25 477.50 15.88Q480.60 14.50 484.25 14.50Q487.95 14.50 491.05 15.88Q494.15 17.25 496.43 19.70Q498.70 22.15 499.95 25.42Q501.20 28.70 501.20 32.50M495.80 32.50Q495.80 28.80 494.32 25.85Q492.85 22.90 490.25 21.20Q487.65 19.50 484.25 19.50Q480.90 19.50 478.30 21.20Q475.70 22.90 474.25 25.82Q472.80 28.75 472.80 32.50Q472.80 36.20 474.25 39.15Q475.70 42.10 478.30 43.80Q480.90 45.50 484.25 45.50Q487.65 45.50 490.25 43.80Q492.85 42.10 494.32 39.15Q495.80 36.20 495.80 32.50ZM510.35 50Q509.15 50 508.25 49.27Q507.35 48.55 507.35 47.45L507.35 17.55Q507.35 16.45 508.10 15.73Q508.85 15 509.90 15L524 15Q526.70 15 528.95 16.32Q531.20 17.65 532.58 19.97Q533.95 22.30 533.95 25.30Q533.95 27.30 533.15 29.13Q532.35 30.95 531 32.35Q529.65 33.75 527.95 34.45L527.40 33.50Q528.95 34.05 530.10 35.08Q531.25 36.10 531.92 37.48Q532.60 38.85 532.65 40.60Q532.80 42.15 532.92 43.17Q533.05 44.20 533.30 44.85Q533.55 45.50 534.20 45.85Q535.10 46.35 535.33 47.35Q535.55 48.35 534.90 49.15Q534.45 49.75 533.77 49.92Q533.10 50.10 532.40 49.98Q531.70 49.85 531.20 49.60Q530.40 49.10 529.58 48.17Q528.75 47.25 528.25 45.60Q527.75 43.95 527.75 41.25Q527.75 40 527.35 39.10Q526.95 38.20 526.25 37.63Q525.55 37.05 524.60 36.77Q523.65 36.50 522.50 36.50L511.90 36.50L512.60 35.50L512.60 47.45Q512.60 48.55 512 49.27Q511.40 50 510.35 50M511.95 32.15L523.90 32.15Q525.05 32.10 526.13 31.22Q527.20 30.35 527.88 28.85Q528.55 27.35 528.55 25.45Q528.55 23.05 527.13 21.42Q525.70 19.80 523.75 19.80L512.05 19.80L512.60 18.50L512.60 33.20L511.95 32.15ZM565.80 50.05Q564.65 50.05 563.95 49.10L551.50 33.05L555.35 29.15L568.05 45.70Q568.65 46.50 568.65 47.45Q568.65 48.65 567.75 49.35Q566.85 50.05 565.80 50.05M566.05 14.85Q567.05 14.85 567.70 15.65Q568.35 16.45 568.35 17.30Q568.35 18.20 567.60 18.95L546.05 39.40L545.75 33.50L564.05 15.80Q564.95 14.85 566.05 14.85M544 50Q542.85 50 542.13 49.27Q541.40 48.55 541.40 47.45L541.40 17.55Q541.40 16.45 542.15 15.73Q542.90 15 544.10 15Q545.25 15 545.95 15.73Q546.65 16.45 546.65 17.55L546.65 47.45Q546.60 48.55 545.90 49.27Q545.20 50 544 50Z"/></g></g></svg>