<svg xmlns="http://www.w3.org/2000/svg" viewBox="0 14.5 570.25 36" data-asc="1" width="570.25" height="36"><defs/><g fill="#ffffff"><g transform="translate(0, 0)"><path d="M18.25 50.50Q14.45 50.50 11.15 49.10Q7.85 47.70 5.35 45.23Q2.85 42.75 1.43 39.50Q0 36.25 0 32.50Q0 28.75 1.43 25.50Q2.85 22.25 5.35 19.77Q7.85 17.30 11.15 15.90Q14.45 14.50 18.25 14.50Q20.60 14.50 22.80 15Q25 15.50 26.85 16.50Q27.60 16.90 27.98 17.57Q28.35 18.25 28.35 18.95Q28.35 20.15 27.55 21.10Q26.75 22.05 25.50 22.05Q25.10 22.05 24.68 21.95Q24.25 21.85 23.85 21.65Q22.60 21.10 21.20 20.80Q19.80 20.50 18.25 20.50Q15 20.50 12.33 22.13Q9.65 23.75 8.08 26.47Q6.50 29.20 6.50 32.50Q6.50 35.75 8.08 38.50Q9.65 41.25 12.33 42.88Q15 44.50 18.25 44.50Q19.75 44.50 21.55 44.20Q23.35 43.90 24.50 43.40L24.05 44.90L24.05 36.35L24.90 37.10L19.35 37.10Q18.05 37.10 17.18 36.25Q16.30 35.40 16.30 34.10Q16.30 32.80 17.18 31.95Q18.05 31.10 19.35 31.10L27.55 31.10Q28.85 31.10 29.70 31.97Q30.55 32.85 30.55 34.15L30.55 44.75Q30.55 45.75 30.08 46.40Q29.60 47.05 29 47.45Q26.70 48.85 23.98 49.67Q21.25 50.50 18.25 50.50ZM55.85 44.15Q57.15 44.15 58.03 44.98Q58.90 45.80 58.90 47.10Q58.90 48.35 58.03 49.17Q57.15 50 55.85 50L39.60 50Q38.30 50 37.43 49.13Q36.55 48.25 36.55 46.95L36.55 18.05Q36.55 16.75 37.45 15.88Q38.35 15 39.75 15Q40.95 15 41.88 15.88Q42.80 16.75 42.80 18.05L42.80 45L41.70 44.15L55.85 44.15ZM70.90 46.95Q70.90 48.25 69.95 49.13Q69 50 67.75 50Q66.35 50 65.50 49.13Q64.65 48.25 64.65 46.95L64.65 18.05Q64.65 16.75 65.55 15.88Q66.45 15 67.85 15Q69.05 15 69.98 15.88Q70.90 16.75 70.90 18.05L70.90 46.95ZM81.55 14.95Q82.25 14.95 83.03 15.32Q83.80 15.70 84.20 16.30L96.35 35L93.85 34.90L106.30 16.30Q107.25 14.95 108.75 14.95Q109.95 14.95 110.90 15.80Q111.85 16.65 111.85 18L111.85 46.95Q111.85 48.25 111 49.13Q110.15 50 108.75 50Q107.35 50 106.48 49.13Q105.60 48.25 105.60 46.95L105.60 23.40L107.55 23.85L97.35 39.40Q96.90 39.95 96.23 40.35Q95.55 40.75 94.85 40.70Q94.20 40.75 93.53 40.35Q92.85 39.95 92.40 39.40L82.85 24.30L84.15 21.65L84.15 46.95Q84.15 48.25 83.35 49.13Q82.55 50 81.25 50Q80 50 79.20 49.13Q78.40 48.25 78.40 46.95L78.40 18Q78.40 16.75 79.33 15.85Q80.25 14.95 81.55 14.95ZM133.80 15Q136.40 15 138.68 16.50Q140.95 18 142.35 20.55Q143.75 23.10 143.75 26.25Q143.75 29.35 142.35 31.90Q140.95 34.45 138.68 35.98Q136.40 37.50 133.80 37.50L124.60 37.50L125.10 36.60L125.10 46.95Q125.10 48.25 124.30 49.13Q123.50 50 122.20 50Q120.95 50 120.15 49.13Q119.35 48.25 119.35 46.95L119.35 18.05Q119.35 16.75 120.23 15.88Q121.10 15 122.40 15L133.80 15M133.80 31.80Q134.75 31.80 135.65 31Q136.55 30.20 137.15 28.92Q137.75 27.65 137.75 26.25Q137.75 24.80 137.15 23.55Q136.55 22.30 135.65 21.52Q134.75 20.75 133.80 20.75L124.50 20.75L125.10 19.85L125.10 32.60L124.55 31.80L133.80 31.80ZM160.75 50.50Q157.25 50.50 154.45 49.63Q151.65 48.75 149.10 46.55Q148.45 46 148.10 45.30Q147.75 44.60 147.75 43.90Q147.75 42.75 148.57 41.88Q149.40 41 150.65 41Q151.60 41 152.35 41.60Q154.25 43.15 156.13 43.95Q158 44.75 160.75 44.75Q162.60 44.75 164.15 44.17Q165.70 43.60 166.65 42.63Q167.60 41.65 167.60 40.40Q167.60 38.90 166.70 37.85Q165.80 36.80 163.95 36.08Q162.10 35.35 159.25 34.95Q156.55 34.55 154.50 33.72Q152.45 32.90 151.07 31.63Q149.70 30.35 149 28.63Q148.30 26.90 148.30 24.75Q148.30 21.50 149.97 19.20Q151.65 16.90 154.50 15.70Q157.35 14.50 160.80 14.50Q164.05 14.50 166.82 15.48Q169.60 16.45 171.35 17.95Q172.80 19.10 172.80 20.60Q172.80 21.70 171.95 22.60Q171.10 23.50 169.95 23.50Q169.20 23.50 168.60 23.05Q167.80 22.35 166.45 21.72Q165.10 21.10 163.60 20.67Q162.10 20.25 160.80 20.25Q158.65 20.25 157.18 20.80Q155.70 21.35 154.95 22.30Q154.20 23.25 154.20 24.50Q154.20 26 155.07 26.97Q155.95 27.95 157.60 28.52Q159.25 29.10 161.55 29.55Q164.55 30.10 166.82 30.85Q169.10 31.60 170.60 32.77Q172.10 33.95 172.85 35.73Q173.60 37.50 173.60 40.05Q173.60 43.30 171.80 45.65Q170 48 167.07 49.25Q164.15 50.50 160.75 50.50ZM182.40 15L199.15 15Q200.45 15 201.32 15.82Q202.20 16.65 202.20 17.95Q202.20 19.20 201.32 19.97Q200.45 20.75 199.15 20.75L185.15 20.75L185.60 19.90L185.60 29.65L185.20 29.25L196.90 29.25Q198.20 29.25 199.07 30.07Q199.95 30.90 199.95 32.20Q199.95 33.45 199.07 34.23Q198.20 35 196.90 35L185.35 35L185.60 34.60L185.60 44.70L185.20 44.25L199.15 44.25Q200.45 44.25 201.32 45.13Q202.20 46 202.20 47.15Q202.20 48.40 201.32 49.20Q200.45 50 199.15 50L182.40 50Q181.10 50 180.22 49.13Q179.35 48.25 179.35 46.95L179.35 18.05Q179.35 16.75 180.22 15.88Q181.10 15 182.40 15ZM254.15 32.50Q254.15 36.25 252.90 39.50Q251.65 42.75 249.38 45.23Q247.10 47.70 243.97 49.10Q240.85 50.50 237.15 50.50Q233.45 50.50 230.35 49.10Q227.25 47.70 224.97 45.23Q222.70 42.75 221.45 39.50Q220.20 36.25 220.20 32.50Q220.20 28.75 221.45 25.50Q222.70 22.25 224.97 19.77Q227.25 17.30 230.35 15.90Q233.45 14.50 237.15 14.50Q240.85 14.50 243.97 15.90Q247.10 17.30 249.38 19.77Q251.65 22.25 252.90 25.50Q254.15 28.75 254.15 32.50M247.65 32.50Q247.65 29.15 246.30 26.42Q244.95 23.70 242.60 22.10Q240.25 20.50 237.15 20.50Q234.05 20.50 231.70 22.10Q229.35 23.70 228.02 26.40Q226.70 29.10 226.70 32.50Q226.70 35.85 228.02 38.58Q229.35 41.30 231.70 42.90Q234.05 44.50 237.15 44.50Q240.25 44.50 242.60 42.90Q244.95 41.30 246.30 38.58Q247.65 35.85 247.65 32.50ZM263.05 50Q261.65 50 260.77 49.13Q259.90 48.25 259.90 46.95L259.90 18.05Q259.90 16.75 260.77 15.88Q261.65 15 262.95 15L279.20 15Q280.50 15 281.38 15.82Q282.25 16.65 282.25 17.95Q282.25 19.05 281.38 19.90Q280.50 20.75 279.20 20.75L265.70 20.75L266.15 20.15L266.15 30.20L265.80 29.55L276.95 29.55Q278.25 29.55 279.13 30.38Q280 31.20 280 32.50Q280 33.60 279.13 34.45Q278.25 35.30 276.95 35.30L265.70 35.30L266.15 34.85L266.15 46.95Q266.15 48.25 265.22 49.13Q264.30 50 263.05 50ZM334.20 32.50Q334.20 36.25 332.95 39.50Q331.70 42.75 329.43 45.23Q327.15 47.70 324.02 49.10Q320.90 50.50 317.20 50.50Q313.50 50.50 310.40 49.10Q307.30 47.70 305.02 45.23Q302.75 42.75 301.50 39.50Q300.25 36.25 300.25 32.50Q300.25 28.75 301.50 25.50Q302.75 22.25 305.02 19.77Q307.30 17.30 310.40 15.90Q313.50 14.50 317.20 14.50Q320.90 14.50 324.02 15.90Q327.15 17.30 329.43 19.77Q331.70 22.25 332.95 25.50Q334.20 28.75 334.20 32.50M327.70 32.50Q327.70 29.15 326.35 26.42Q325 23.70 322.65 22.10Q320.30 20.50 317.20 20.50Q314.10 20.50 311.75 22.10Q309.40 23.70 308.07 26.40Q306.75 29.10 306.75 32.50Q306.75 35.85 308.07 38.58Q309.40 41.30 311.75 42.90Q314.10 44.50 317.20 44.50Q320.30 44.50 322.65 42.90Q325 41.30 326.35 38.58Q327.70 35.85 327.70 32.50ZM364.80 14.95Q366.10 14.95 366.90 15.82Q367.70 16.70 367.70 18L367.70 36.10Q367.70 40.25 365.93 43.45Q364.15 46.65 361.05 48.45Q357.95 50.25 353.85 50.25Q349.75 50.25 346.63 48.45Q343.50 46.65 341.72 43.45Q339.95 40.25 339.95 36.10L339.95 18Q339.95 16.70 340.85 15.82Q341.75 14.95 343.15 14.95Q344.30 14.95 345.22 15.82Q346.15 16.70 346.15 18L346.15 36.10Q346.15 38.60 347.22 40.42Q348.30 42.25 350.07 43.25Q351.85 44.25 353.85 44.25Q356 44.25 357.85 43.25Q359.70 42.25 360.85 40.42Q362 38.60 362 36.10L362 18Q362 16.70 362.75 15.82Q363.50 14.95 364.80 14.95ZM378.80 50Q377.40 50 376.30 49.13Q375.20 48.25 375.20 46.95L375.20 18.05Q375.20 16.75 376.07 15.88Q376.95 15 378.25 15L392.65 15Q395.25 15 397.52 16.38Q399.80 17.75 401.20 20.17Q402.60 22.60 402.60 25.75Q402.60 27.65 401.82 29.45Q401.05 31.25 399.72 32.70Q398.40 34.15 396.75 34.95L396.80 33.80Q398.20 34.55 399.13 35.58Q400.05 36.60 400.57 37.77Q401.10 38.95 401.20 40.30Q401.40 41.55 401.47 42.50Q401.55 43.45 401.77 44.10Q402 44.75 402.65 45.10Q403.75 45.75 404.02 46.98Q404.30 48.20 403.45 49.15Q402.90 49.80 402.05 49.98Q401.20 50.15 400.35 49.98Q399.50 49.80 398.95 49.50Q398.10 49 397.25 48.02Q396.40 47.05 395.88 45.40Q395.35 43.75 395.35 41.15Q395.35 40.30 395.05 39.58Q394.75 38.85 394.20 38.33Q393.65 37.80 392.80 37.52Q391.95 37.25 390.80 37.25L380.70 37.25L381.45 36.10L381.45 46.95Q381.45 48.25 380.75 49.13Q380.05 50 378.80 50M380.75 32.10L392.40 32.10Q393.30 32.10 394.15 31.27Q395 30.45 395.55 29.02Q396.10 27.60 396.10 25.90Q396.10 23.70 394.93 22.22Q393.75 20.75 392.40 20.75L380.85 20.75L381.45 19.15L381.45 33.30L380.75 32.10ZM462.90 14.85Q464.05 14.85 465.10 15.73Q466.15 16.60 466.15 18.10Q466.15 18.55 466 19.10L456.15 48.10Q455.85 49 455.07 49.48Q454.30 49.95 453.45 50Q452.60 50 451.78 49.50Q450.95 49 450.50 48.05L443.10 31.25L443.55 31.55L436.25 48.05Q435.80 49 434.98 49.50Q434.15 50 433.30 50Q432.50 49.95 431.70 49.48Q430.90 49 430.60 48.10L420.75 19.10Q420.60 18.55 420.60 18.10Q420.60 16.60 421.68 15.73Q422.75 14.85 423.90 14.85Q424.85 14.85 425.68 15.35Q426.50 15.85 426.80 16.80L434.75 40.90L433.65 40.85L440.75 23.80Q441.15 22.90 441.90 22.38Q442.65 21.85 443.60 21.90Q444.55 21.85 445.30 22.38Q446.05 22.90 446.40 23.80L452.90 40.10L452.10 40.60L459.95 16.80Q460.25 15.85 461.10 15.35Q461.95 14.85 462.90 14.85ZM502.65 32.50Q502.65 36.25 501.40 39.50Q500.15 42.75 497.88 45.23Q495.60 47.70 492.48 49.10Q489.35 50.50 485.65 50.50Q481.95 50.50 478.85 49.10Q475.75 47.70 473.48 45.23Q471.20 42.75 469.95 39.50Q468.70 36.25 468.70 32.50Q468.70 28.75 469.95 25.50Q471.20 22.25 473.48 19.77Q475.75 17.30 478.85 15.90Q481.95 14.50 485.65 14.50Q489.35 14.50 492.48 15.90Q495.60 17.30 497.88 19.77Q500.15 22.25 501.40 25.50Q502.65 28.75 502.65 32.50M496.15 32.50Q496.15 29.15 494.80 26.42Q493.45 23.70 491.10 22.10Q488.75 20.50 485.65 20.50Q482.55 20.50 480.20 22.10Q477.85 23.70 476.53 26.40Q475.20 29.10 475.20 32.50Q475.20 35.85 476.53 38.58Q477.85 41.30 480.20 42.90Q482.55 44.50 485.65 44.50Q488.75 44.50 491.10 42.90Q493.45 41.30 494.80 38.58Q496.15 35.85 496.15 32.50ZM512 50Q510.60 50 509.50 49.13Q508.40 48.25 508.40 46.95L508.40 18.05Q508.40 16.75 509.28 15.88Q510.15 15 511.45 15L525.85 15Q528.45 15 530.73 16.38Q533 17.75 534.40 20.17Q535.80 22.60 535.80 25.75Q535.80 27.65 535.03 29.45Q534.25 31.25 532.93 32.70Q531.60 34.15 529.95 34.95L530 33.80Q531.40 34.55 532.33 35.58Q533.25 36.60 533.78 37.77Q534.30 38.95 534.40 40.30Q534.60 41.55 534.68 42.50Q534.75 43.45 534.98 44.10Q535.20 44.75 535.85 45.10Q536.95 45.75 537.23 46.98Q537.50 48.20 536.65 49.15Q536.10 49.80 535.25 49.98Q534.40 50.15 533.55 49.98Q532.70 49.80 532.15 49.50Q531.30 49 530.45 48.02Q529.60 47.05 529.08 45.40Q528.55 43.75 528.55 41.15Q528.55 40.30 528.25 39.58Q527.95 38.85 527.40 38.33Q526.85 37.80 526 37.52Q525.15 37.25 524 37.25L513.90 37.25L514.65 36.10L514.65 46.95Q514.65 48.25 513.95 49.13Q513.25 50 512 50M513.95 32.10L525.60 32.10Q526.50 32.10 527.35 31.27Q528.20 30.45 528.75 29.02Q529.30 27.60 529.30 25.90Q529.30 23.70 528.13 22.22Q526.95 20.75 525.60 20.75L514.05 20.75L514.65 19.15L514.65 33.30L513.95 32.10ZM566.85 50Q565.45 50 564.60 48.85L553.05 33.65L557.60 29L569.55 44.80Q570.25 45.75 570.25 46.85Q570.25 48.25 569.20 49.13Q568.15 50 566.85 50M567.45 14.75Q568.65 14.75 569.42 15.73Q570.20 16.70 570.20 17.70Q570.20 18.75 569.30 19.65L548.35 39.70L548.10 32.55L565 15.90Q566.15 14.75 567.45 14.75M545.85 50Q544.45 50 543.60 49.13Q542.75 48.25 542.75 46.95L542.75 18.05Q542.75 16.75 543.65 15.88Q544.55 15 545.95 15Q547.35 15 548.17 15.88Q549 16.75 549 18.05L549 46.95Q549 48.25 548.15 49.13Q547.30 50 545.85 50Z"/></g></g></svg>