<svg xmlns="http://www.w3.org/2000/svg" viewBox="0 10.329999923706055 590.8200073242188 36.55000686645508" data-asc="0.927734375" width="590.8200073242188" height="36.55000686645508"><defs/><g fill="#ffffff"><g transform="translate(0, 0)"><path d="M29.76 34.35Q29.59 38.06 27.76 40.91Q25.93 43.75 22.62 45.31Q19.31 46.88 15.06 46.88Q8.06 46.88 4.03 42.31Q0 37.74 0 29.42L0 27.66Q0 22.44 1.82 18.52Q3.64 14.60 7.06 12.46Q10.47 10.33 14.97 10.33Q21.44 10.33 25.37 13.73Q29.30 17.14 29.83 23.12L21.29 23.12Q21.19 19.87 19.65 18.46Q18.12 17.04 14.97 17.04Q11.77 17.04 10.28 19.43Q8.79 21.83 8.72 27.08L8.72 29.59Q8.72 35.28 10.14 37.72Q11.57 40.16 15.06 40.16Q18.02 40.16 19.58 38.77Q21.14 37.38 21.24 34.35L29.76 34.35ZM47.02 33.84L42.38 33.84L42.38 46.39L33.81 46.39L33.81 10.84L47.80 10.84Q54.13 10.84 57.69 13.65Q61.25 16.46 61.25 21.58Q61.25 25.29 59.75 27.73Q58.25 30.18 55.05 31.69L62.48 46.02L62.48 46.39L53.30 46.39L47.02 33.84M42.38 27.22L47.80 27.22Q50.24 27.22 51.48 25.94Q52.71 24.66 52.71 22.36Q52.71 20.07 51.46 18.76Q50.22 17.46 47.80 17.46L42.38 17.46L42.38 27.22ZM86.62 39.75L74.88 39.75L72.83 46.39L63.67 46.39L76.71 10.84L84.77 10.84L97.90 46.39L88.70 46.39L86.62 39.75M76.93 33.13L84.57 33.13L80.74 20.80L76.93 33.13ZM122.88 32.23L109.06 32.23L109.06 46.39L100.49 46.39L100.49 10.84L124.27 10.84L124.27 17.46L109.06 17.46L109.06 25.63L122.88 25.63L122.88 32.23ZM156.23 17.46L145.56 17.46L145.56 46.39L136.99 46.39L136.99 17.46L126.51 17.46L126.51 10.84L156.23 10.84L156.23 17.46ZM181.88 31.32L168.41 31.32L168.41 39.79L184.33 39.79L184.33 46.39L159.84 46.39L159.84 10.84L184.38 10.84L184.38 17.46L168.41 17.46L168.41 24.95L181.88 24.95L181.88 31.32ZM187.82 46.39L187.82 10.84L199.27 10.84Q203.98 10.84 207.74 12.98Q211.50 15.11 213.61 19.01Q215.72 22.90 215.75 27.73L215.75 29.37Q215.75 34.25 213.68 38.12Q211.62 41.99 207.87 44.18Q204.13 46.36 199.51 46.39L187.82 46.39M196.39 17.46L196.39 39.79L199.37 39.79Q203.05 39.79 205.03 37.17Q207.01 34.55 207.01 29.37L207.01 27.83Q207.01 22.68 205.03 20.07Q203.05 17.46 199.27 17.46L196.39 17.46ZM260.13 33.13L264.21 10.84L272.71 10.84L265.16 46.39L256.27 46.39L251.51 26.12L246.85 46.39L237.99 46.39L230.42 10.84L238.94 10.84L243.02 33.13L247.90 10.84L255.18 10.84L260.13 33.13ZM285.18 46.39L276.64 46.39L276.64 10.84L285.18 10.84L285.18 46.39ZM318.33 17.46L307.67 17.46L307.67 46.39L299.10 46.39L299.10 17.46L288.62 17.46L288.62 10.84L318.33 10.84L318.33 17.46ZM351.66 46.39L343.14 46.39L343.14 31.54L330.52 31.54L330.52 46.39L321.95 46.39L321.95 10.84L330.52 10.84L330.52 24.95L343.14 24.95L343.14 10.84L351.66 10.84L351.66 46.39ZM378.10 34.33L378.10 46.39L369.53 46.39L369.53 10.84L383.72 10.84Q387.79 10.84 390.93 12.34Q394.07 13.84 395.79 16.61Q397.51 19.38 397.51 22.90Q397.51 28.10 393.79 31.21Q390.06 34.33 383.57 34.33L378.10 34.33M378.10 27.71L383.72 27.71Q386.21 27.71 387.51 26.46Q388.82 25.22 388.82 22.95Q388.82 20.46 387.48 18.97Q386.13 17.48 383.81 17.46L378.10 17.46L378.10 27.71ZM429.96 10.84L429.96 34.11Q429.96 38.06 428.27 40.95Q426.59 43.85 423.44 45.36Q420.29 46.88 415.99 46.88Q409.50 46.88 405.76 43.51Q402.03 40.14 401.95 34.28L401.95 10.84L410.57 10.84L410.57 34.45Q410.72 40.28 415.99 40.28Q418.65 40.28 420.02 38.82Q421.39 37.35 421.39 34.06L421.39 10.84L429.96 10.84ZM448.51 33.84L443.87 33.84L443.87 46.39L435.30 46.39L435.30 10.84L449.29 10.84Q455.62 10.84 459.18 13.65Q462.74 16.46 462.74 21.58Q462.74 25.29 461.24 27.73Q459.74 30.18 456.54 31.69L463.96 46.02L463.96 46.39L454.79 46.39L448.51 33.84M443.87 27.22L449.29 27.22Q451.73 27.22 452.97 25.94Q454.20 24.66 454.20 22.36Q454.20 20.07 452.95 18.76Q451.71 17.46 449.29 17.46L443.87 17.46L443.87 27.22ZM476.49 34.33L476.49 46.39L467.92 46.39L467.92 10.84L482.10 10.84Q486.18 10.84 489.32 12.34Q492.46 13.84 494.18 16.61Q495.90 19.38 495.90 22.90Q495.90 28.10 492.18 31.21Q488.45 34.33 481.96 34.33L476.49 34.33M476.49 27.71L482.10 27.71Q484.59 27.71 485.90 26.46Q487.21 25.22 487.21 22.95Q487.21 20.46 485.86 18.97Q484.52 17.48 482.20 17.46L476.49 17.46L476.49 27.71ZM530.57 29.35Q530.57 34.55 528.64 38.55Q526.71 42.55 523.16 44.71Q519.60 46.88 515.06 46.88Q510.52 46.88 507.01 44.79Q503.49 42.70 501.53 38.82Q499.56 34.94 499.46 29.91L499.46 27.91Q499.46 22.68 501.38 18.69Q503.30 14.70 506.87 12.52Q510.45 10.35 515.01 10.35Q519.53 10.35 523.07 12.50Q526.61 14.65 528.58 18.62Q530.54 22.58 530.57 27.71L530.57 29.35M521.85 27.86Q521.85 22.56 520.08 19.81Q518.31 17.07 515.01 17.07Q508.57 17.07 508.20 26.73L508.18 29.35Q508.18 34.57 509.91 37.38Q511.65 40.19 515.06 40.19Q518.31 40.19 520.07 37.43Q521.83 34.67 521.85 29.49L521.85 27.86ZM553.32 36.94Q553.32 35.06 551.99 34.01Q550.66 32.96 547.31 31.84Q543.97 30.71 541.85 29.66Q534.94 26.27 534.94 20.34Q534.94 17.38 536.66 15.12Q538.38 12.87 541.53 11.61Q544.68 10.35 548.61 10.35Q552.44 10.35 555.48 11.72Q558.52 13.09 560.21 15.61Q561.89 18.14 561.89 21.39L553.34 21.39Q553.34 19.21 552.01 18.02Q550.68 16.82 548.41 16.82Q546.12 16.82 544.79 17.83Q543.46 18.85 543.46 20.41Q543.46 21.78 544.92 22.89Q546.39 24.00 550.07 25.18Q553.76 26.37 556.13 27.73Q561.89 31.05 561.89 36.89Q561.89 41.55 558.37 44.21Q554.86 46.88 548.73 46.88Q544.41 46.88 540.91 45.32Q537.40 43.77 535.63 41.08Q533.86 38.38 533.86 34.86L542.46 34.86Q542.46 37.72 543.93 39.07Q545.41 40.43 548.73 40.43Q550.85 40.43 552.09 39.51Q553.32 38.60 553.32 36.94ZM588.33 31.32L574.85 31.32L574.85 39.79L590.77 39.79L590.77 46.39L566.28 46.39L566.28 10.84L590.82 10.84L590.82 17.46L574.85 17.46L574.85 24.95L588.33 24.95L588.33 31.32Z"/></g></g></svg>