<svg xmlns="http://www.w3.org/2000/svg" viewBox="0 17.100000381469727 325.54998779296875 35.75" data-asc="1.05" width="325.54998779296875" height="35.75"><defs/><g fill="#ffffff"><g transform="translate(0, 0)"><path d="M49 17.60L39.25 52.50L31 52.50L24.45 27.65L17.60 52.50L9.40 52.55L0 17.60L7.50 17.60L13.65 44.70L20.75 17.60L28.55 17.60L35.25 44.55L41.45 17.60L49 17.60ZM82.50 17.60L82.50 52.50L75.50 52.50L75.50 37.65L60.55 37.65L60.55 52.50L53.55 52.50L53.55 17.60L60.55 17.60L60.55 31.95L75.50 31.95L75.50 17.60L82.50 17.60ZM110.80 45.85L96.90 45.85L94.60 52.50L87.25 52.50L99.80 17.55L107.95 17.55L120.50 52.50L113.10 52.50L110.80 45.85M108.90 40.25L103.85 25.65L98.80 40.25L108.90 40.25ZM148.95 17.60L148.95 23.25L139.65 23.25L139.65 52.50L132.65 52.50L132.65 23.25L123.35 23.25L123.35 17.60L148.95 17.60ZM212.60 17.60L202.85 52.50L194.60 52.50L188.05 27.65L181.20 52.50L173 52.55L163.60 17.60L171.10 17.60L177.25 44.70L184.35 17.60L192.15 17.60L198.85 44.55L205.05 17.60L212.60 17.60ZM224.15 23.25L224.15 32L235.90 32L235.90 37.55L224.15 37.55L224.15 46.80L237.40 46.80L237.40 52.50L217.15 52.50L217.15 17.55L237.40 17.55L237.40 23.25L224.15 23.25ZM267.85 17.60Q273.35 17.60 277.52 19.75Q281.70 21.90 283.97 25.88Q286.25 29.85 286.25 35.10Q286.25 40.35 283.97 44.27Q281.70 48.20 277.52 50.35Q273.35 52.50 267.85 52.50L255.65 52.50L255.65 17.60L267.85 17.60M267.60 46.55Q273.10 46.55 276.10 43.55Q279.10 40.55 279.10 35.10Q279.10 29.65 276.10 26.57Q273.10 23.50 267.60 23.50L262.65 23.50L262.65 46.55L267.60 46.55ZM307.70 52.85Q302.80 52.85 298.70 50.55Q294.60 48.25 292.20 44.17Q289.80 40.10 289.80 34.95Q289.80 29.85 292.20 25.77Q294.60 21.70 298.70 19.40Q302.80 17.10 307.70 17.10Q312.65 17.10 316.73 19.40Q320.80 21.70 323.18 25.77Q325.55 29.85 325.55 34.95Q325.55 40.10 323.18 44.17Q320.80 48.25 316.70 50.55Q312.60 52.85 307.70 52.85M307.70 46.60Q310.85 46.60 313.25 45.17Q315.65 43.75 317 41.10Q318.35 38.45 318.35 34.95Q318.35 31.45 317 28.82Q315.65 26.20 313.25 24.80Q310.85 23.40 307.70 23.40Q304.55 23.40 302.13 24.80Q299.70 26.20 298.35 28.82Q297 31.45 297 34.95Q297 38.45 298.35 41.10Q299.70 43.75 302.13 45.17Q304.55 46.60 307.70 46.60Z"/></g></g></svg>