<svg xmlns="http://www.w3.org/2000/svg" viewBox="0 8.899999618530273 703.7000122070312 35.599998474121094" data-asc="0.878" width="703.7000122070312" height="35.599998474121094"><defs/><g fill="#ffffff"><g transform="translate(0, 0)"><path d="M17.85 8.90Q25.50 8.90 29.95 12.72Q34.40 16.55 34.40 23.65L23.85 23.65Q23.85 20.65 22.28 18.90Q20.70 17.15 17.80 17.15Q14.45 17.15 12.88 19.25Q11.30 21.35 11.30 25.10L11.30 28.30Q11.30 32 12.88 34.13Q14.45 36.25 17.70 36.25Q20.90 36.25 22.55 34.60Q24.20 32.95 24.20 29.95L34.40 29.95Q34.40 37 30.08 40.75Q25.75 44.50 17.85 44.50Q9.05 44.50 4.53 40Q0 35.50 0 26.70Q0 17.90 4.53 13.40Q9.05 8.90 17.85 8.90ZM73 20.05Q73 23.20 71.30 25.75Q69.60 28.30 66.35 29.50L74 43.90L61.60 43.90L55.50 31.35L51.40 31.35L51.40 43.90L40.35 43.90L40.35 9.50L61.40 9.50Q65.10 9.50 67.73 10.92Q70.35 12.35 71.68 14.77Q73 17.20 73 20.05M61.75 20.50Q61.75 19.15 60.85 18.25Q59.95 17.35 58.65 17.35L51.40 17.35L51.40 23.70L58.65 23.70Q59.95 23.70 60.85 22.77Q61.75 21.85 61.75 20.50ZM102.30 43.90L100.85 39.05L88.80 39.05L87.35 43.90L76.05 43.90L88.60 9.50L101.45 9.50L114.00 43.90L102.30 43.90M91.10 31.35L98.55 31.35L94.95 19.10L94.75 19.10L91.10 31.35ZM118.15 9.50L145.95 9.50L145.95 17.75L129.20 17.75L129.20 23.65L143.60 23.65L143.60 31.55L129.20 31.55L129.20 43.90L118.15 43.90L118.15 9.50ZM171.30 18.30L171.30 43.90L160.25 43.90L160.25 18.30L148.95 18.30L148.95 9.50L182.55 9.50L182.55 18.30L171.30 18.30ZM187.60 9.50L217.35 9.50L217.35 17.75L198.65 17.75L198.65 22.50L214.65 22.50L214.65 30.40L198.65 30.40L198.65 35.65L217.70 35.65L217.70 43.90L187.60 43.90L187.60 9.50ZM238.60 9.50Q256.65 9.50 256.65 26.70Q256.65 43.90 238.60 43.90L223.70 43.90L223.70 9.50L238.60 9.50M234.75 35.65L238.40 35.65Q245.35 35.65 245.35 28.20L245.35 25.20Q245.35 17.75 238.40 17.75L234.75 17.75L234.75 35.65ZM305.10 43.90L300.65 22.95L300.45 22.95L296.00 43.90L283.85 43.90L275.80 9.50L287.30 9.50L291.25 29L291.45 29L295.35 9.50L306.25 9.50L310.40 29L310.60 29L314.30 9.50L325.30 9.50L317.25 43.90L305.10 43.90ZM329.75 43.90L329.75 9.50L340.80 9.50L340.80 43.90L329.75 43.90ZM368.50 18.30L368.50 43.90L357.45 43.90L357.45 18.30L346.15 18.30L346.15 9.50L379.75 9.50L379.75 18.30L368.50 18.30ZM408.00 43.90L408.00 30.85L395.85 30.85L395.85 43.90L384.80 43.90L384.80 9.50L395.85 9.50L395.85 22.05L408.00 22.05L408.00 9.50L419.05 9.50L419.05 43.90L408.00 43.90ZM462.40 9.50Q465.60 9.50 468.10 10.97Q470.60 12.45 472 15.02Q473.40 17.60 473.40 20.80L473.40 21.45Q473.40 24.65 472 27.25Q470.60 29.85 468.10 31.32Q465.60 32.80 462.40 32.80L454.15 32.80L454.15 43.90L443.10 43.90L443.10 9.50L462.40 9.50M454.15 24.75L458.70 24.75Q460.45 24.75 461.32 23.85Q462.20 22.95 462.20 21.40L462.20 21.00Q462.20 19.40 461.32 18.52Q460.45 17.65 458.70 17.65L454.15 17.65L454.15 24.75ZM513.45 30.05Q513.45 37.10 509 40.80Q504.55 44.50 496.35 44.50Q488.15 44.50 483.68 40.80Q479.20 37.10 479.20 30.05L479.20 9.50L490.25 9.50L490.25 29.90Q490.25 32.80 491.80 34.52Q493.35 36.25 496.30 36.25Q499.25 36.25 500.82 34.50Q502.40 32.75 502.40 29.90L502.40 9.50L513.45 9.50L513.45 30.05ZM553.50 20.05Q553.50 23.20 551.80 25.75Q550.10 28.30 546.85 29.50L554.50 43.90L542.10 43.90L536 31.35L531.90 31.35L531.90 43.90L520.85 43.90L520.85 9.50L541.90 9.50Q545.60 9.50 548.23 10.92Q550.85 12.35 552.17 14.77Q553.50 17.20 553.50 20.05M542.25 20.50Q542.25 19.15 541.35 18.25Q540.45 17.35 539.15 17.35L531.90 17.35L531.90 23.70L539.15 23.70Q540.45 23.70 541.35 22.77Q542.25 21.85 542.25 20.50ZM579.05 9.50Q582.25 9.50 584.75 10.97Q587.25 12.45 588.65 15.02Q590.05 17.60 590.05 20.80L590.05 21.45Q590.05 24.65 588.65 27.25Q587.25 29.85 584.75 31.32Q582.25 32.80 579.05 32.80L570.80 32.80L570.80 43.90L559.75 43.90L559.75 9.50L579.05 9.50M570.80 24.75L575.35 24.75Q577.10 24.75 577.97 23.85Q578.85 22.95 578.85 21.40L578.85 21.00Q578.85 19.40 577.97 18.52Q577.10 17.65 575.35 17.65L570.80 17.65L570.80 24.75ZM612.95 8.90Q621.85 8.90 626.70 13.45Q631.55 18.00 631.55 26.70Q631.55 35.40 626.70 39.95Q621.85 44.50 612.95 44.50Q604.05 44.50 599.23 39.98Q594.40 35.45 594.40 26.70Q594.40 17.95 599.23 13.42Q604.05 8.90 612.95 8.90M612.95 17.15Q609.40 17.15 607.55 19.30Q605.70 21.45 605.70 25.10L605.70 28.30Q605.70 31.95 607.55 34.10Q609.40 36.25 612.95 36.25Q616.50 36.25 618.38 34.10Q620.25 31.95 620.25 28.30L620.25 25.10Q620.25 21.45 618.38 19.30Q616.50 17.15 612.95 17.15ZM651.95 8.90Q658.55 8.90 662.80 11.57Q667.05 14.25 667.15 19.50L667.15 20.10L656.80 20.10L656.80 19.90Q656.80 18.40 655.70 17.40Q654.60 16.40 652.35 16.40Q650.15 16.40 648.97 17.05Q647.80 17.70 647.80 18.65Q647.80 20.00 649.40 20.65Q651 21.30 654.55 22.00Q658.70 22.85 661.38 23.77Q664.05 24.70 666.05 26.80Q668.05 28.90 668.10 32.50Q668.10 38.60 663.97 41.55Q659.85 44.50 652.95 44.50Q644.90 44.50 640.42 41.80Q635.95 39.10 635.95 32.25L646.40 32.25Q646.40 34.85 647.75 35.72Q649.10 36.60 651.95 36.60Q654.05 36.60 655.42 36.15Q656.80 35.70 656.80 34.30Q656.80 33.05 655.27 32.42Q653.75 31.80 650.30 31.10Q646.10 30.20 643.35 29.22Q640.60 28.25 638.55 26.00Q636.50 23.75 636.50 19.90Q636.50 14.25 640.88 11.57Q645.25 8.90 651.95 8.90ZM673.60 9.50L703.35 9.50L703.35 17.75L684.65 17.75L684.65 22.50L700.65 22.50L700.65 30.40L684.65 30.40L684.65 35.65L703.70 35.65L703.70 43.90L673.60 43.90L673.60 9.50Z"/></g></g></svg>