<svg xmlns="http://www.w3.org/2000/svg" viewBox="0 1.0700000524520874 586.9600219726562 39.70000076293945" data-asc="0.7978515625" width="586.9600219726562" height="39.70000076293945"><defs/><g fill="#ffffff"><g transform="translate(0, 0)"><path d="M0 32.13L4.98 30.42Q6.40 32.91 8.98 34.45Q11.57 35.99 14.79 35.99Q18.16 35.99 20.29 34.33Q22.41 32.67 22.41 29.93Q22.41 28.47 21.78 27.32Q21.14 26.17 19.80 25.32Q18.46 24.46 17.21 23.93Q15.97 23.39 13.96 22.71Q8.20 20.80 6.05 19.48Q1.37 16.60 1.37 11.38Q1.37 6.74 4.98 3.91Q8.59 1.07 14.45 1.07Q19.19 1.07 22.61 3.27Q26.03 5.47 27.54 8.84L22.85 10.45Q19.82 5.86 14.40 5.86Q11.04 5.86 9.08 7.35Q7.13 8.84 7.13 11.33Q7.13 13.23 8.69 14.70Q10.25 16.16 11.62 16.70Q12.99 17.24 16.41 18.36Q17.14 18.60 17.53 18.75Q19.82 19.53 21.48 20.31Q23.14 21.09 24.80 22.36Q26.46 23.63 27.34 25.49Q28.22 27.34 28.22 29.69Q28.22 34.91 24.46 37.84Q20.70 40.77 14.70 40.77Q9.47 40.77 5.66 38.43Q1.86 36.08 0 32.13ZM34.47 39.89L34.47 1.95L40.04 1.95L40.04 18.02L56.45 18.02L56.45 1.95L62.01 1.95L62.01 39.89L56.45 39.89L56.45 22.75L40.04 22.75L40.04 39.89L34.47 39.89ZM77.20 25.49L89.50 25.49L85.89 14.75Q85.60 13.87 84.74 11.21Q83.89 8.54 83.50 7.28L83.20 7.28Q82.62 9.18 80.86 14.75L77.20 25.49M66.36 39.89L80.22 1.95L86.52 1.95L100.39 39.89L94.38 39.89L91.02 29.98L75.73 29.98L72.36 39.89L66.36 39.89ZM104.74 39.89L104.74 1.95L119.38 1.95Q125.20 1.95 128.49 5.08Q131.79 8.20 131.79 13.38Q131.79 18.70 128.42 21.78Q125.05 24.85 119.48 24.85L110.30 24.85L110.30 39.89L104.74 39.89M110.30 20.12L118.65 20.12Q122.17 20.12 124.10 18.41Q126.03 16.70 126.03 13.38Q126.03 10.11 124.12 8.42Q122.22 6.74 118.60 6.74L110.30 6.74L110.30 20.12ZM138.13 39.89L138.13 1.95L162.65 1.95L162.65 6.74L143.70 6.74L143.70 17.92L160.79 17.92L160.79 22.61L143.70 22.61L143.70 35.11L163.09 35.11L163.09 39.89L138.13 39.89ZM169.38 39.89L169.38 1.95L180.32 1.95Q188.82 1.95 193.48 6.84Q198.14 11.72 198.14 20.95Q198.14 25 197.12 28.34Q196.09 31.69 194.02 34.33Q191.94 36.96 188.43 38.43Q184.91 39.89 180.22 39.89L169.38 39.89M174.95 35.16L179.59 35.16Q192.33 35.16 192.33 20.95Q192.33 6.69 179.69 6.69L174.95 6.69L174.95 35.16ZM216.99 39.89L216.99 1.95L231.25 1.95Q237.16 1.95 240.11 4.61Q243.07 7.28 243.07 11.87Q243.07 17.43 238.13 19.87Q240.72 20.75 242.58 23.14Q244.43 25.54 244.43 29.00Q244.43 33.59 241.43 36.74Q238.43 39.89 233.11 39.89L216.99 39.89M222.56 35.11L232.03 35.11Q234.81 35.11 236.74 33.52Q238.67 31.93 238.67 29.05Q238.67 26.37 236.87 24.54Q235.06 22.71 231.88 22.71L222.56 22.71L222.56 35.11M222.56 18.02L230.62 18.02Q233.54 18.02 235.42 16.58Q237.30 15.14 237.30 12.30Q237.30 9.77 235.74 8.25Q234.18 6.74 230.81 6.74L222.56 6.74L222.56 18.02ZM245.17 1.95L251.66 1.95L257.71 13.28Q259.77 17.04 261.13 19.78L261.28 19.78Q261.82 18.85 262.40 17.75Q262.99 16.65 263.67 15.33Q264.36 14.01 264.75 13.28L270.75 1.95L277.29 1.95L264.06 24.41L264.06 39.89L258.45 39.89L258.45 24.41L245.17 1.95ZM293.90 39.89L293.90 1.95L299.46 1.95L299.46 39.89L293.90 39.89ZM308.59 39.89L308.59 1.95L314.60 1.95L326.86 23.88L331.15 31.69L331.45 31.69Q330.76 26.56 330.76 20.80L330.76 1.95L336.38 1.95L336.38 39.89L330.37 39.89L318.07 18.16L313.77 10.25L313.53 10.25Q314.16 15.33 314.16 21.14L314.16 39.89L308.59 39.89ZM345.51 39.89L345.51 1.95L351.51 1.95L363.77 23.88L368.07 31.69L368.36 31.69Q367.68 26.56 367.68 20.80L367.68 1.95L373.29 1.95L373.29 39.89L367.29 39.89L354.98 18.16L350.68 10.25L350.44 10.25Q351.07 15.33 351.07 21.14L351.07 39.89L345.51 39.89ZM380.03 20.95Q380.03 12.01 384.45 6.54Q388.87 1.07 396.19 1.07Q403.52 1.07 407.89 6.54Q412.26 12.01 412.26 21.00Q412.26 30.03 407.86 35.40Q403.47 40.77 396.19 40.77Q388.87 40.77 384.45 35.38Q380.03 29.98 380.03 20.95M385.84 20.95Q385.84 27.88 388.60 31.93Q391.36 35.99 396.19 35.99Q400.98 35.99 403.74 31.98Q406.49 27.98 406.49 21.00Q406.49 14.11 403.78 9.99Q401.07 5.86 396.19 5.86Q391.36 5.86 388.60 9.94Q385.84 14.01 385.84 20.95ZM413.28 1.95L419.38 1.95L426.37 25.20Q428.27 32.18 428.76 34.13L428.96 34.13Q429.39 32.52 430.18 29.66Q430.96 26.81 431.40 25.20L438.38 1.95L444.53 1.95L432.08 39.89L425.68 39.89L413.28 1.95ZM453.17 25.49L465.48 25.49L461.87 14.75Q461.57 13.87 460.72 11.21Q459.86 8.54 459.47 7.28L459.18 7.28Q458.59 9.18 456.84 14.75L453.17 25.49M442.33 39.89L456.20 1.95L462.50 1.95L476.37 39.89L470.36 39.89L466.99 29.98L451.71 29.98L448.34 39.89L442.33 39.89ZM474.95 6.74L474.95 1.95L502.83 1.95L502.83 6.74L491.70 6.74L491.70 39.89L486.13 39.89L486.13 6.74L474.95 6.74ZM507.86 39.89L507.86 1.95L513.43 1.95L513.43 39.89L507.86 39.89ZM520.17 20.95Q520.17 12.01 524.58 6.54Q529.00 1.07 536.33 1.07Q543.65 1.07 548.02 6.54Q552.39 12.01 552.39 21.00Q552.39 30.03 548.00 35.40Q543.60 40.77 536.33 40.77Q529.00 40.77 524.58 35.38Q520.17 29.98 520.17 20.95M525.98 20.95Q525.98 27.88 528.74 31.93Q531.49 35.99 536.33 35.99Q541.11 35.99 543.87 31.98Q546.63 27.98 546.63 21.00Q546.63 14.11 543.92 9.99Q541.21 5.86 536.33 5.86Q531.49 5.86 528.74 9.94Q525.98 14.01 525.98 20.95ZM559.18 39.89L559.18 1.95L565.19 1.95L577.44 23.88L581.74 31.69L582.03 31.69Q581.35 26.56 581.35 20.80L581.35 1.95L586.96 1.95L586.96 39.89L580.96 39.89L568.65 18.16L564.36 10.25L564.11 10.25Q564.75 15.33 564.75 21.14L564.75 39.89L559.18 39.89Z"/></g></g></svg>