<svg xmlns="http://www.w3.org/2000/svg" viewBox="0 1.0700000524520874 602.5900268554688 39.70000076293945" data-asc="0.7978515625" width="602.5900268554688" height="39.70000076293945"><defs/><g fill="#ffffff"><g transform="translate(0, 0)"><path d="M0 32.13L4.98 30.42Q6.40 32.91 8.98 34.45Q11.57 35.99 14.79 35.99Q18.16 35.99 20.29 34.33Q22.41 32.67 22.41 29.93Q22.41 28.47 21.78 27.32Q21.14 26.17 19.80 25.32Q18.46 24.46 17.21 23.93Q15.97 23.39 13.96 22.71Q8.20 20.80 6.05 19.48Q1.37 16.60 1.37 11.38Q1.37 6.74 4.98 3.91Q8.59 1.07 14.45 1.07Q19.19 1.07 22.61 3.27Q26.03 5.47 27.54 8.84L22.85 10.45Q19.82 5.86 14.40 5.86Q11.04 5.86 9.08 7.35Q7.13 8.84 7.13 11.33Q7.13 13.23 8.69 14.70Q10.25 16.16 11.62 16.70Q12.99 17.24 16.41 18.36Q17.14 18.60 17.53 18.75Q19.82 19.53 21.48 20.31Q23.14 21.09 24.80 22.36Q26.46 23.63 27.34 25.49Q28.22 27.34 28.22 29.69Q28.22 34.91 24.46 37.84Q20.70 40.77 14.70 40.77Q9.47 40.77 5.66 38.43Q1.86 36.08 0 32.13ZM29.49 6.74L29.49 1.95L57.37 1.95L57.37 6.74L46.24 6.74L46.24 39.89L40.67 39.89L40.67 6.74L29.49 6.74ZM62.40 39.89L62.40 1.95L86.91 1.95L86.91 6.74L67.97 6.74L67.97 17.92L85.06 17.92L85.06 22.61L67.97 22.61L67.97 35.11L87.35 35.11L87.35 39.89L62.40 39.89ZM93.65 39.89L93.65 1.95L108.30 1.95Q114.11 1.95 117.41 5.08Q120.70 8.20 120.70 13.38Q120.70 18.70 117.33 21.78Q113.96 24.85 108.40 24.85L99.22 24.85L99.22 39.89L93.65 39.89M99.22 20.12L107.57 20.12Q111.08 20.12 113.01 18.41Q114.94 16.70 114.94 13.38Q114.94 10.11 113.04 8.42Q111.13 6.74 107.52 6.74L99.22 6.74L99.22 20.12ZM139.26 39.89L139.26 1.95L144.82 1.95L144.82 39.89L139.26 39.89ZM153.96 39.89L153.96 1.95L159.96 1.95L172.22 23.88L176.51 31.69L176.81 31.69Q176.12 26.56 176.12 20.80L176.12 1.95L181.74 1.95L181.74 39.89L175.73 39.89L163.43 18.16L159.13 10.25L158.89 10.25Q159.52 15.33 159.52 21.14L159.52 39.89L153.96 39.89ZM186.82 6.74L186.82 1.95L214.70 1.95L214.70 6.74L203.56 6.74L203.56 39.89L198.00 39.89L198.00 6.74L186.82 6.74ZM216.65 20.95Q216.65 12.01 221.07 6.54Q225.49 1.07 232.81 1.07Q240.14 1.07 244.51 6.54Q248.88 12.01 248.88 21.00Q248.88 30.03 244.48 35.40Q240.09 40.77 232.81 40.77Q225.49 40.77 221.07 35.38Q216.65 29.98 216.65 20.95M222.46 20.95Q222.46 27.88 225.22 31.93Q227.98 35.99 232.81 35.99Q237.60 35.99 240.36 31.98Q243.12 27.98 243.12 21.00Q243.12 14.11 240.41 9.99Q237.70 5.86 232.81 5.86Q227.98 5.86 225.22 9.94Q222.46 14.01 222.46 20.95ZM267.87 39.89L267.87 1.95L292.38 1.95L292.38 6.74L273.44 6.74L273.44 17.92L290.53 17.92L290.53 22.61L273.44 22.61L273.44 35.11L292.82 35.11L292.82 39.89L267.87 39.89ZM294.58 39.89L306.84 20.41L295.17 1.95L301.86 1.95L306.79 10.50Q307.32 11.47 308.42 13.35Q309.52 15.23 310.06 16.21L310.25 16.21Q310.79 15.23 311.91 13.33Q313.04 11.43 313.53 10.50L318.46 1.95L325.15 1.95L313.48 20.41L325.78 39.89L319.19 39.89L313.77 30.81Q313.13 29.79 311.91 27.64Q310.69 25.49 310.25 24.76L310.06 24.76Q308.79 27.00 306.54 30.81L301.17 39.89L294.58 39.89ZM330.32 39.89L330.32 1.95L344.97 1.95Q350.78 1.95 354.08 5.08Q357.37 8.20 357.37 13.38Q357.37 18.70 354.00 21.78Q350.63 24.85 345.07 24.85L335.89 24.85L335.89 39.89L330.32 39.89M335.89 20.12L344.24 20.12Q347.75 20.12 349.68 18.41Q351.61 16.70 351.61 13.38Q351.61 10.11 349.71 8.42Q347.80 6.74 344.19 6.74L335.89 6.74L335.89 20.12ZM363.72 39.89L363.72 1.95L388.23 1.95L388.23 6.74L369.29 6.74L369.29 17.92L386.38 17.92L386.38 22.61L369.29 22.61L369.29 35.11L388.67 35.11L388.67 39.89L363.72 39.89ZM400.54 19.58L409.28 19.58Q412.70 19.58 414.53 17.85Q416.36 16.11 416.36 13.04Q416.36 10.21 414.45 8.47Q412.55 6.74 409.03 6.74L400.54 6.74L400.54 19.58M394.97 39.89L394.97 1.95L410.16 1.95Q415.92 1.95 419.02 5.00Q422.12 8.06 422.12 12.60Q422.12 16.50 420.26 18.99Q418.41 21.48 416.11 22.27Q418.02 23.49 418.85 24.95Q419.68 26.42 420.26 29.25Q420.90 32.28 421.73 34.62Q422.56 36.96 424.27 39.89L418.02 39.89Q415.87 36.28 414.40 29.64Q413.87 27.05 412.72 25.68Q411.57 24.32 409.13 24.32L400.54 24.32L400.54 39.89L394.97 39.89ZM429.35 39.89L429.35 1.95L434.91 1.95L434.91 39.89L429.35 39.89ZM444.04 39.89L444.04 1.95L468.55 1.95L468.55 6.74L449.61 6.74L449.61 17.92L466.70 17.92L466.70 22.61L449.61 22.61L449.61 35.11L468.99 35.11L468.99 39.89L444.04 39.89ZM475.29 39.89L475.29 1.95L481.30 1.95L493.55 23.88L497.85 31.69L498.14 31.69Q497.46 26.56 497.46 20.80L497.46 1.95L503.08 1.95L503.08 39.89L497.07 39.89L484.77 18.16L480.47 10.25L480.22 10.25Q480.86 15.33 480.86 21.14L480.86 39.89L475.29 39.89ZM509.81 20.95Q509.81 11.77 514.45 6.42Q519.09 1.07 526.46 1.07Q531.20 1.07 534.52 3.66Q537.84 6.25 539.45 9.96L534.67 11.57Q531.45 5.86 526.37 5.86Q521.44 5.86 518.51 9.99Q515.58 14.11 515.58 20.95Q515.58 27.88 518.55 31.93Q521.53 35.99 526.37 35.99Q529.54 35.99 531.91 34.13Q534.28 32.28 535.40 29.59L540.43 31.15Q539.70 32.91 538.57 34.45Q537.45 35.99 535.79 37.50Q534.13 39.01 531.71 39.89Q529.30 40.77 526.46 40.77Q519.24 40.77 514.53 35.50Q509.81 30.22 509.81 20.95ZM546.19 39.89L546.19 1.95L570.70 1.95L570.70 6.74L551.76 6.74L551.76 17.92L568.85 17.92L568.85 22.61L551.76 22.61L551.76 35.11L571.14 35.11L571.14 39.89L546.19 39.89ZM574.37 32.13L579.35 30.42Q580.76 32.91 583.35 34.45Q585.94 35.99 589.16 35.99Q592.53 35.99 594.65 34.33Q596.78 32.67 596.78 29.93Q596.78 28.47 596.14 27.32Q595.51 26.17 594.17 25.32Q592.82 24.46 591.58 23.93Q590.33 23.39 588.33 22.71Q582.57 20.80 580.42 19.48Q575.73 16.60 575.73 11.38Q575.73 6.74 579.35 3.91Q582.96 1.07 588.82 1.07Q593.55 1.07 596.97 3.27Q600.39 5.47 601.90 8.84L597.22 10.45Q594.19 5.86 588.77 5.86Q585.40 5.86 583.45 7.35Q581.49 8.84 581.49 11.33Q581.49 13.23 583.06 14.70Q584.62 16.16 585.99 16.70Q587.35 17.24 590.77 18.36Q591.50 18.60 591.89 18.75Q594.19 19.53 595.85 20.31Q597.51 21.09 599.17 22.36Q600.83 23.63 601.71 25.49Q602.59 27.34 602.59 29.69Q602.59 34.91 598.83 37.84Q595.07 40.77 589.06 40.77Q583.84 40.77 580.03 38.43Q576.22 36.08 574.37 32.13Z"/></g></g></svg>