<svg xmlns="http://www.w3.org/2000/svg" viewBox="0 1.0700000524520874 576.6599731445312 39.70000076293945" data-asc="0.7978515625" width="576.6599731445312" height="39.70000076293945"><defs/><g fill="#ffffff"><g transform="translate(0, 0)"><path d="M0 20.95Q0 12.21 4.59 6.64Q9.18 1.07 16.94 1.07Q19.73 1.07 22.14 1.98Q24.56 2.88 26.15 4.32Q27.73 5.76 28.71 7.10Q29.69 8.45 30.32 9.81L25.54 11.38Q23.97 8.89 22.02 7.37Q20.07 5.86 16.94 5.86Q11.67 5.86 8.72 10.01Q5.76 14.16 5.76 20.95Q5.76 27.93 8.79 31.96Q11.82 35.99 16.70 35.99Q21.00 35.99 23.41 33.37Q25.83 30.76 26.03 26.95Q26.07 26.12 26.07 23.68L16.31 23.68L16.31 18.95L31.49 18.95L31.49 39.89L27.59 39.89L27.15 35.45Q24.02 40.77 16.55 40.77Q9.33 40.77 4.66 35.42Q0 30.08 0 20.95ZM39.01 39.89L39.01 1.95L44.58 1.95L44.58 35.11L62.06 35.11L62.06 39.89L39.01 39.89ZM67.09 39.89L67.09 1.95L72.66 1.95L72.66 39.89L67.09 39.89ZM81.79 39.89L81.79 1.95L88.72 1.95L95.90 20.51Q96.53 22.31 97.68 25.56Q98.83 28.81 99.32 30.18L99.51 30.18Q99.80 29.39 103.03 20.51L110.11 1.95L117.14 1.95L117.14 39.89L111.57 39.89L111.57 21.34Q111.57 17.58 112.21 9.67L112.01 9.67L109.52 16.80L101.61 37.50L97.31 37.50L89.40 16.80L86.87 9.62L86.62 9.62Q87.35 17.58 87.35 21.34L87.35 39.89L81.79 39.89ZM126.22 39.89L126.22 1.95L140.87 1.95Q146.68 1.95 149.98 5.08Q153.27 8.20 153.27 13.38Q153.27 18.70 149.90 21.78Q146.53 24.85 140.97 24.85L131.79 24.85L131.79 39.89L126.22 39.89M131.79 20.12L140.14 20.12Q143.65 20.12 145.58 18.41Q147.51 16.70 147.51 13.38Q147.51 10.11 145.61 8.42Q143.70 6.74 140.09 6.74L131.79 6.74L131.79 20.12ZM156.54 32.13L161.52 30.42Q162.94 32.91 165.53 34.45Q168.12 35.99 171.34 35.99Q174.71 35.99 176.83 34.33Q178.96 32.67 178.96 29.93Q178.96 28.47 178.32 27.32Q177.69 26.17 176.34 25.32Q175 24.46 173.75 23.93Q172.51 23.39 170.51 22.71Q164.75 20.80 162.60 19.48Q157.91 16.60 157.91 11.38Q157.91 6.74 161.52 3.91Q165.14 1.07 171.00 1.07Q175.73 1.07 179.15 3.27Q182.57 5.47 184.08 8.84L179.39 10.45Q176.37 5.86 170.95 5.86Q167.58 5.86 165.63 7.35Q163.67 8.84 163.67 11.33Q163.67 13.23 165.23 14.70Q166.80 16.16 168.16 16.70Q169.53 17.24 172.95 18.36Q173.68 18.60 174.07 18.75Q176.37 19.53 178.03 20.31Q179.69 21.09 181.35 22.36Q183.01 23.63 183.89 25.49Q184.77 27.34 184.77 29.69Q184.77 34.91 181.01 37.84Q177.25 40.77 171.24 40.77Q166.02 40.77 162.21 38.43Q158.40 36.08 156.54 32.13ZM191.02 39.89L191.02 1.95L215.53 1.95L215.53 6.74L196.58 6.74L196.58 17.92L213.67 17.92L213.67 22.61L196.58 22.61L196.58 35.11L215.97 35.11L215.97 39.89L191.02 39.89ZM232.08 20.95Q232.08 12.01 236.50 6.54Q240.92 1.07 248.24 1.07Q255.57 1.07 259.94 6.54Q264.31 12.01 264.31 21.00Q264.31 30.03 259.91 35.40Q255.52 40.77 248.24 40.77Q240.92 40.77 236.50 35.38Q232.08 29.98 232.08 20.95M237.89 20.95Q237.89 27.88 240.65 31.93Q243.41 35.99 248.24 35.99Q253.03 35.99 255.79 31.98Q258.54 27.98 258.54 21.00Q258.54 14.11 255.83 9.99Q253.13 5.86 248.24 5.86Q243.41 5.86 240.65 9.94Q237.89 14.01 237.89 20.95ZM271.09 39.89L271.09 1.95L294.87 1.95L294.87 6.74L276.66 6.74L276.66 18.51L293.02 18.51L293.02 23.19L276.66 23.19L276.66 39.89L271.09 39.89ZM309.96 20.95Q309.96 12.01 314.38 6.54Q318.80 1.07 326.12 1.07Q333.45 1.07 337.82 6.54Q342.19 12.01 342.19 21.00Q342.19 30.03 337.79 35.40Q333.40 40.77 326.12 40.77Q318.80 40.77 314.38 35.38Q309.96 29.98 309.96 20.95M315.77 20.95Q315.77 27.88 318.53 31.93Q321.29 35.99 326.12 35.99Q330.91 35.99 333.67 31.98Q336.43 27.98 336.43 21.00Q336.43 14.11 333.72 9.99Q331.01 5.86 326.12 5.86Q321.29 5.86 318.53 9.94Q315.77 14.01 315.77 20.95ZM348.83 25.88L348.83 1.95L354.44 1.95L354.44 25.83Q354.44 30.96 356.67 33.47Q358.89 35.99 362.65 35.99Q366.50 35.99 368.70 33.40Q370.90 30.81 370.90 25.83L370.90 1.95L376.51 1.95L376.51 25.88Q376.51 32.96 373.00 36.87Q369.48 40.77 362.65 40.77Q356.05 40.77 352.44 36.99Q348.83 33.20 348.83 25.88ZM391.02 19.58L399.76 19.58Q403.17 19.58 405.00 17.85Q406.84 16.11 406.84 13.04Q406.84 10.21 404.93 8.47Q403.03 6.74 399.51 6.74L391.02 6.74L391.02 19.58M385.45 39.89L385.45 1.95L400.63 1.95Q406.40 1.95 409.50 5.00Q412.60 8.06 412.60 12.60Q412.60 16.50 410.74 18.99Q408.89 21.48 406.59 22.27Q408.50 23.49 409.33 24.95Q410.16 26.42 410.74 29.25Q411.38 32.28 412.21 34.62Q413.04 36.96 414.75 39.89L408.50 39.89Q406.35 36.28 404.88 29.64Q404.35 27.05 403.20 25.68Q402.05 24.32 399.61 24.32L391.02 24.32L391.02 39.89L385.45 39.89ZM428.03 1.95L433.98 1.95L438.38 24.37Q439.06 28.17 439.89 33.79L440.14 33.79Q440.92 29.49 441.94 24.37L446.92 1.95L452.69 1.95L457.71 24.37Q458.74 29.30 459.52 33.79L459.77 33.79Q459.96 32.67 460.52 29.30Q461.08 25.93 461.33 24.37L465.67 1.95L471.63 1.95L462.99 39.89L456.54 39.89L451.61 17.77Q450.20 10.60 449.95 8.84L449.71 8.84Q449.46 10.55 448.78 13.87Q448.10 17.19 448.00 17.77L443.12 39.89L436.72 39.89L428.03 1.95ZM474.37 20.95Q474.37 12.01 478.78 6.54Q483.20 1.07 490.53 1.07Q497.85 1.07 502.22 6.54Q506.59 12.01 506.59 21.00Q506.59 30.03 502.20 35.40Q497.80 40.77 490.53 40.77Q483.20 40.77 478.78 35.38Q474.37 29.98 474.37 20.95M480.18 20.95Q480.18 27.88 482.93 31.93Q485.69 35.99 490.53 35.99Q495.31 35.99 498.07 31.98Q500.83 27.98 500.83 21.00Q500.83 14.11 498.12 9.99Q495.41 5.86 490.53 5.86Q485.69 5.86 482.93 9.94Q480.18 14.01 480.18 20.95ZM518.95 19.58L527.69 19.58Q531.10 19.58 532.93 17.85Q534.77 16.11 534.77 13.04Q534.77 10.21 532.86 8.47Q530.96 6.74 527.44 6.74L518.95 6.74L518.95 19.58M513.38 39.89L513.38 1.95L528.56 1.95Q534.33 1.95 537.43 5.00Q540.53 8.06 540.53 12.60Q540.53 16.50 538.67 18.99Q536.82 21.48 534.52 22.27Q536.43 23.49 537.26 24.95Q538.09 26.42 538.67 29.25Q539.31 32.28 540.14 34.62Q540.97 36.96 542.68 39.89L536.43 39.89Q534.28 36.28 532.81 29.64Q532.28 27.05 531.13 25.68Q529.98 24.32 527.54 24.32L518.95 24.32L518.95 39.89L513.38 39.89ZM547.75 39.89L547.75 1.95L553.32 1.95L553.32 20.02L553.47 20.02L568.99 1.95L576.12 1.95L561.57 18.46L576.66 39.89L569.87 39.89L558.01 22.46L553.32 27.78L553.32 39.89L547.75 39.89Z"/></g></g></svg>