<svg xmlns="http://www.w3.org/2000/svg" viewBox="0 1.0700000524520874 481.5400085449219 39.70000076293945" data-asc="0.7978515625" width="481.5400085449219" height="39.70000076293945"><defs/><g fill="#ffffff"><g transform="translate(0, 0)"><path d="M0 39.89L0 1.95L5.57 1.95L5.57 39.89L0 39.89ZM14.70 39.89L14.70 1.95L20.70 1.95L32.96 23.88L37.26 31.69L37.55 31.69Q36.87 26.56 36.87 20.80L36.87 1.95L42.48 1.95L42.48 39.89L36.47 39.89L24.17 18.16L19.87 10.25L19.63 10.25Q20.26 15.33 20.26 21.14L20.26 39.89L14.70 39.89ZM47.56 6.74L47.56 1.95L75.44 1.95L75.44 6.74L64.31 6.74L64.31 39.89L58.74 39.89L58.74 6.74L47.56 6.74ZM77.39 20.95Q77.39 12.01 81.81 6.54Q86.23 1.07 93.55 1.07Q100.88 1.07 105.25 6.54Q109.62 12.01 109.62 21.00Q109.62 30.03 105.22 35.40Q100.83 40.77 93.55 40.77Q86.23 40.77 81.81 35.38Q77.39 29.98 77.39 20.95M83.20 20.95Q83.20 27.88 85.96 31.93Q88.72 35.99 93.55 35.99Q98.34 35.99 101.10 31.98Q103.86 27.98 103.86 21.00Q103.86 14.11 101.15 9.99Q98.44 5.86 93.55 5.86Q88.72 5.86 85.96 9.94Q83.20 14.01 83.20 20.95ZM134.18 19.58L142.92 19.58Q146.34 19.58 148.17 17.85Q150 16.11 150 13.04Q150 10.21 148.10 8.47Q146.19 6.74 142.68 6.74L134.18 6.74L134.18 19.58M128.61 39.89L128.61 1.95L143.80 1.95Q149.56 1.95 152.66 5.00Q155.76 8.06 155.76 12.60Q155.76 16.50 153.91 18.99Q152.05 21.48 149.76 22.27Q151.66 23.49 152.49 24.95Q153.32 26.42 153.91 29.25Q154.54 32.28 155.37 34.62Q156.20 36.96 157.91 39.89L151.66 39.89Q149.51 36.28 148.05 29.64Q147.51 27.05 146.36 25.68Q145.21 24.32 142.77 24.32L134.18 24.32L134.18 39.89L128.61 39.89ZM162.99 39.89L162.99 1.95L187.50 1.95L187.50 6.74L168.55 6.74L168.55 17.92L185.64 17.92L185.64 22.61L168.55 22.61L168.55 35.11L187.94 35.11L187.94 39.89L162.99 39.89ZM200.78 25.49L213.09 25.49L209.47 14.75Q209.18 13.87 208.33 11.21Q207.47 8.54 207.08 7.28L206.79 7.28Q206.20 9.18 204.44 14.75L200.78 25.49M189.94 39.89L203.81 1.95L210.11 1.95L223.97 39.89L217.97 39.89L214.60 29.98L199.32 29.98L195.95 39.89L189.94 39.89ZM228.32 39.89L228.32 1.95L233.89 1.95L233.89 35.11L251.37 35.11L251.37 39.89L228.32 39.89ZM274.17 19.58L282.91 19.58Q286.33 19.58 288.16 17.85Q289.99 16.11 289.99 13.04Q289.99 10.21 288.09 8.47Q286.18 6.74 282.67 6.74L274.17 6.74L274.17 19.58M268.60 39.89L268.60 1.95L283.79 1.95Q289.55 1.95 292.65 5.00Q295.75 8.06 295.75 12.60Q295.75 16.50 293.90 18.99Q292.04 21.48 289.75 22.27Q291.65 23.49 292.48 24.95Q293.31 26.42 293.90 29.25Q294.53 32.28 295.36 34.62Q296.19 36.96 297.90 39.89L291.65 39.89Q289.50 36.28 288.04 29.64Q287.50 27.05 286.35 25.68Q285.21 24.32 282.76 24.32L274.17 24.32L274.17 39.89L268.60 39.89ZM302.98 39.89L302.98 1.95L327.49 1.95L327.49 6.74L308.54 6.74L308.54 17.92L325.63 17.92L325.63 22.61L308.54 22.61L308.54 35.11L327.93 35.11L327.93 39.89L302.98 39.89ZM331.15 32.13L336.13 30.42Q337.55 32.91 340.14 34.45Q342.72 35.99 345.95 35.99Q349.32 35.99 351.44 34.33Q353.56 32.67 353.56 29.93Q353.56 28.47 352.93 27.32Q352.29 26.17 350.95 25.32Q349.61 24.46 348.36 23.93Q347.12 23.39 345.12 22.71Q339.36 20.80 337.21 19.48Q332.52 16.60 332.52 11.38Q332.52 6.74 336.13 3.91Q339.75 1.07 345.61 1.07Q350.34 1.07 353.76 3.27Q357.18 5.47 358.69 8.84L354.00 10.45Q350.98 5.86 345.56 5.86Q342.19 5.86 340.23 7.35Q338.28 8.84 338.28 11.33Q338.28 13.23 339.84 14.70Q341.41 16.16 342.77 16.70Q344.14 17.24 347.56 18.36Q348.29 18.60 348.68 18.75Q350.98 19.53 352.64 20.31Q354.30 21.09 355.96 22.36Q357.62 23.63 358.50 25.49Q359.38 27.34 359.38 29.69Q359.38 34.91 355.62 37.84Q351.86 40.77 345.85 40.77Q340.63 40.77 336.82 38.43Q333.01 36.08 331.15 32.13ZM365.48 25.88L365.48 1.95L371.09 1.95L371.09 25.83Q371.09 30.96 373.32 33.47Q375.54 35.99 379.30 35.99Q383.15 35.99 385.35 33.40Q387.55 30.81 387.55 25.83L387.55 1.95L393.16 1.95L393.16 25.88Q393.16 32.96 389.65 36.87Q386.13 40.77 379.30 40.77Q372.71 40.77 369.09 36.99Q365.48 33.20 365.48 25.88ZM402.10 39.89L402.10 1.95L407.67 1.95L407.67 35.11L425.15 35.11L425.15 39.89L402.10 39.89ZM423.88 6.74L423.88 1.95L451.76 1.95L451.76 6.74L440.63 6.74L440.63 39.89L435.06 39.89L435.06 6.74L423.88 6.74ZM453.32 32.13L458.30 30.42Q459.72 32.91 462.30 34.45Q464.89 35.99 468.12 35.99Q471.48 35.99 473.61 34.33Q475.73 32.67 475.73 29.93Q475.73 28.47 475.10 27.32Q474.46 26.17 473.12 25.32Q471.78 24.46 470.53 23.93Q469.29 23.39 467.29 22.71Q461.52 20.80 459.38 19.48Q454.69 16.60 454.69 11.38Q454.69 6.74 458.30 3.91Q461.91 1.07 467.77 1.07Q472.51 1.07 475.93 3.27Q479.35 5.47 480.86 8.84L476.17 10.45Q473.14 5.86 467.72 5.86Q464.36 5.86 462.40 7.35Q460.45 8.84 460.45 11.33Q460.45 13.23 462.01 14.70Q463.57 16.16 464.94 16.70Q466.31 17.24 469.73 18.36Q470.46 18.60 470.85 18.75Q473.14 19.53 474.80 20.31Q476.46 21.09 478.13 22.36Q479.79 23.63 480.66 25.49Q481.54 27.34 481.54 29.69Q481.54 34.91 477.78 37.84Q474.02 40.77 468.02 40.77Q462.79 40.77 458.98 38.43Q455.18 36.08 453.32 32.13Z"/></g></g></svg>