<svg xmlns="http://www.w3.org/2000/svg" viewBox="0 1.0700000524520874 636.6199951171875 39.70000076293945" data-asc="0.7978515625" width="636.6199951171875" height="39.70000076293945"><defs/><g fill="#ffffff"><g transform="translate(0, 0)"><path d="M0 6.74L0 1.95L27.88 1.95L27.88 6.74L16.75 6.74L16.75 39.89L11.18 39.89L11.18 6.74L0 6.74ZM32.91 39.89L32.91 1.95L38.48 1.95L38.48 18.02L54.88 18.02L54.88 1.95L60.45 1.95L60.45 39.89L54.88 39.89L54.88 22.75L38.48 22.75L38.48 39.89L32.91 39.89ZM75.63 25.49L87.94 25.49L84.33 14.75Q84.03 13.87 83.18 11.21Q82.32 8.54 81.93 7.28L81.64 7.28Q81.05 9.18 79.30 14.75L75.63 25.49M64.79 39.89L78.66 1.95L84.96 1.95L98.83 39.89L92.82 39.89L89.45 29.98L74.17 29.98L70.80 39.89L64.79 39.89ZM97.41 6.74L97.41 1.95L125.29 1.95L125.29 6.74L114.16 6.74L114.16 39.89L108.59 39.89L108.59 6.74L97.41 6.74ZM138.48 6.74L138.48 1.95L166.36 1.95L166.36 6.74L155.22 6.74L155.22 39.89L149.66 39.89L149.66 6.74L138.48 6.74ZM176.95 19.58L185.69 19.58Q189.11 19.58 190.94 17.85Q192.77 16.11 192.77 13.04Q192.77 10.21 190.87 8.47Q188.96 6.74 185.45 6.74L176.95 6.74L176.95 19.58M171.39 39.89L171.39 1.95L186.57 1.95Q192.33 1.95 195.43 5.00Q198.54 8.06 198.54 12.60Q198.54 16.50 196.68 18.99Q194.82 21.48 192.53 22.27Q194.43 23.49 195.26 24.95Q196.09 26.42 196.68 29.25Q197.31 32.28 198.14 34.62Q198.97 36.96 200.68 39.89L194.43 39.89Q192.29 36.28 190.82 29.64Q190.28 27.05 189.14 25.68Q187.99 24.32 185.55 24.32L176.95 24.32L176.95 39.89L171.39 39.89ZM212.40 25.49L224.71 25.49L221.09 14.75Q220.80 13.87 219.95 11.21Q219.09 8.54 218.70 7.28L218.41 7.28Q217.82 9.18 216.06 14.75L212.40 25.49M201.56 39.89L215.43 1.95L221.73 1.95L235.60 39.89L229.59 39.89L226.22 29.98L210.94 29.98L207.57 39.89L201.56 39.89ZM239.94 39.89L239.94 1.95L245.95 1.95L258.20 23.88L262.50 31.69L262.79 31.69Q262.11 26.56 262.11 20.80L262.11 1.95L267.72 1.95L267.72 39.89L261.72 39.89L249.41 18.16L245.12 10.25L244.87 10.25Q245.51 15.33 245.51 21.14L245.51 39.89L239.94 39.89ZM273.78 32.13L278.76 30.42Q280.18 32.91 282.76 34.45Q285.35 35.99 288.57 35.99Q291.94 35.99 294.07 34.33Q296.19 32.67 296.19 29.93Q296.19 28.47 295.56 27.32Q294.92 26.17 293.58 25.32Q292.24 24.46 290.99 23.93Q289.75 23.39 287.74 22.71Q281.98 20.80 279.83 19.48Q275.15 16.60 275.15 11.38Q275.15 6.74 278.76 3.91Q282.37 1.07 288.23 1.07Q292.97 1.07 296.39 3.27Q299.80 5.47 301.32 8.84L296.63 10.45Q293.60 5.86 288.18 5.86Q284.81 5.86 282.86 7.35Q280.91 8.84 280.91 11.33Q280.91 13.23 282.47 14.70Q284.03 16.16 285.40 16.70Q286.77 17.24 290.19 18.36Q290.92 18.60 291.31 18.75Q293.60 19.53 295.26 20.31Q296.92 21.09 298.58 22.36Q300.24 23.63 301.12 25.49Q302.00 27.34 302.00 29.69Q302.00 34.91 298.24 37.84Q294.48 40.77 288.48 40.77Q283.25 40.77 279.44 38.43Q275.63 36.08 273.78 32.13ZM308.25 39.89L308.25 1.95L332.03 1.95L332.03 6.74L313.82 6.74L313.82 18.51L330.18 18.51L330.18 23.19L313.82 23.19L313.82 39.89L308.25 39.89ZM334.91 20.95Q334.91 12.01 339.33 6.54Q343.75 1.07 351.07 1.07Q358.40 1.07 362.77 6.54Q367.14 12.01 367.14 21.00Q367.14 30.03 362.74 35.40Q358.35 40.77 351.07 40.77Q343.75 40.77 339.33 35.38Q334.91 29.98 334.91 20.95M340.72 20.95Q340.72 27.88 343.48 31.93Q346.24 35.99 351.07 35.99Q355.86 35.99 358.62 31.98Q361.38 27.98 361.38 21.00Q361.38 14.11 358.67 9.99Q355.96 5.86 351.07 5.86Q346.24 5.86 343.48 9.94Q340.72 14.01 340.72 20.95ZM379.49 19.58L388.23 19.58Q391.65 19.58 393.48 17.85Q395.31 16.11 395.31 13.04Q395.31 10.21 393.41 8.47Q391.50 6.74 387.99 6.74L379.49 6.74L379.49 19.58M373.93 39.89L373.93 1.95L389.11 1.95Q394.87 1.95 397.97 5.00Q401.07 8.06 401.07 12.60Q401.07 16.50 399.22 18.99Q397.36 21.48 395.07 22.27Q396.97 23.49 397.80 24.95Q398.63 26.42 399.22 29.25Q399.85 32.28 400.68 34.62Q401.51 36.96 403.22 39.89L396.97 39.89Q394.82 36.28 393.36 29.64Q392.82 27.05 391.67 25.68Q390.53 24.32 388.09 24.32L379.49 24.32L379.49 39.89L373.93 39.89ZM408.30 39.89L408.30 1.95L415.23 1.95L422.41 20.51Q423.05 22.31 424.19 25.56Q425.34 28.81 425.83 30.18L426.03 30.18Q426.32 29.39 429.54 20.51L436.62 1.95L443.65 1.95L443.65 39.89L438.09 39.89L438.09 21.34Q438.09 17.58 438.72 9.67L438.53 9.67L436.04 16.80L428.13 37.50L423.83 37.50L415.92 16.80L413.38 9.62L413.13 9.62Q413.87 17.58 413.87 21.34L413.87 39.89L408.30 39.89ZM449.66 32.13L454.64 30.42Q456.05 32.91 458.64 34.45Q461.23 35.99 464.45 35.99Q467.82 35.99 469.95 34.33Q472.07 32.67 472.07 29.93Q472.07 28.47 471.44 27.32Q470.80 26.17 469.46 25.32Q468.12 24.46 466.87 23.93Q465.63 23.39 463.62 22.71Q457.86 20.80 455.71 19.48Q451.03 16.60 451.03 11.38Q451.03 6.74 454.64 3.91Q458.25 1.07 464.11 1.07Q468.85 1.07 472.27 3.27Q475.68 5.47 477.20 8.84L472.51 10.45Q469.48 5.86 464.06 5.86Q460.69 5.86 458.74 7.35Q456.79 8.84 456.79 11.33Q456.79 13.23 458.35 14.70Q459.91 16.16 461.28 16.70Q462.65 17.24 466.06 18.36Q466.80 18.60 467.19 18.75Q469.48 19.53 471.14 20.31Q472.80 21.09 474.46 22.36Q476.12 23.63 477.00 25.49Q477.88 27.34 477.88 29.69Q477.88 34.91 474.12 37.84Q470.36 40.77 464.36 40.77Q459.13 40.77 455.32 38.43Q451.51 36.08 449.66 32.13ZM496.34 39.89L496.34 1.95L501.90 1.95L501.90 39.89L496.34 39.89ZM511.04 39.89L511.04 1.95L521.97 1.95Q530.47 1.95 535.13 6.84Q539.79 11.72 539.79 20.95Q539.79 25 538.77 28.34Q537.74 31.69 535.67 34.33Q533.59 36.96 530.08 38.43Q526.56 39.89 521.88 39.89L511.04 39.89M516.60 35.16L521.24 35.16Q533.98 35.16 533.98 20.95Q533.98 6.69 521.34 6.69L516.60 6.69L516.60 35.16ZM546.44 39.89L546.44 1.95L570.95 1.95L570.95 6.74L552.00 6.74L552.00 17.92L569.09 17.92L569.09 22.61L552.00 22.61L552.00 35.11L571.39 35.11L571.39 39.89L546.44 39.89ZM584.23 25.49L596.53 25.49L592.92 14.75Q592.63 13.87 591.77 11.21Q590.92 8.54 590.53 7.28L590.23 7.28Q589.65 9.18 587.89 14.75L584.23 25.49M573.39 39.89L587.26 1.95L593.55 1.95L607.42 39.89L601.42 39.89L598.05 29.98L582.76 29.98L579.39 39.89L573.39 39.89ZM608.40 32.13L613.38 30.42Q614.79 32.91 617.38 34.45Q619.97 35.99 623.19 35.99Q626.56 35.99 628.69 34.33Q630.81 32.67 630.81 29.93Q630.81 28.47 630.18 27.32Q629.54 26.17 628.20 25.32Q626.86 24.46 625.61 23.93Q624.37 23.39 622.36 22.71Q616.60 20.80 614.45 19.48Q609.77 16.60 609.77 11.38Q609.77 6.74 613.38 3.91Q616.99 1.07 622.85 1.07Q627.59 1.07 631.01 3.27Q634.42 5.47 635.94 8.84L631.25 10.45Q628.22 5.86 622.80 5.86Q619.43 5.86 617.48 7.35Q615.53 8.84 615.53 11.33Q615.53 13.23 617.09 14.70Q618.65 16.16 620.02 16.70Q621.39 17.24 624.80 18.36Q625.54 18.60 625.93 18.75Q628.22 19.53 629.88 20.31Q631.54 21.09 633.20 22.36Q634.86 23.63 635.74 25.49Q636.62 27.34 636.62 29.69Q636.62 34.91 632.86 37.84Q629.10 40.77 623.10 40.77Q617.87 40.77 614.06 38.43Q610.25 36.08 608.40 32.13Z"/></g></g></svg>